<svg xmlns="http://www.w3.org/2000/svg" style="width:0; height:0; visibility:hidden;">
    <symbol id="icon_advantages-badge-left" viewBox="0 0 25 92">
       <path d="M0.0471601 2.42474C-0.22384 1.17814 0.72585 -0.000160217 2.00155 -0.000160217L19.7454 -0.000732422C3.0627 -0.000732422 21.132 -0.000317156 21.132 -0.000317156L19.1776 -0.000283182L23.02 -0.000732422L21.132 -0.000317156L25 -0.000732422V91.9998C25 91.9998 24.46 91.9998 23.02 91.9998H21.132C20.1912 91.9998 19.3774 91.3438 19.1776 90.4248L0.0471601 2.42474Z"/> 
    </symbol>
    <symbol id="icon_advantages-badge-right" viewBox="0 0 22 92">
       <path d="M0.5 0H1H1.5H19.1661C20.6061 0 21.5741 1.4766 21.0001 2.7975L2.56311 45.2025C2.34211 45.7112 2.34211 46.2888 2.56311 46.7975L21.0001 89.203C21.5741 90.523 20.6061 92 19.1661 92H1.5H1L0.5 0Z"/> 
    </symbol>
    <symbol id="icon_arrow-down" viewBox="0 0 12 8">
       <path d="M10.9999 1.17C10.8126 0.983749 10.5591 0.879208 10.2949 0.879208C10.0308 0.879208 9.77731 0.983749 9.58995 1.17L5.99995 4.71L2.45995 1.17C2.27259 0.983749 2.01913 0.879208 1.75495 0.879208C1.49076 0.879208 1.23731 0.983749 1.04995 1.17C0.95622 1.26296 0.881826 1.37356 0.831057 1.49542C0.780288 1.61728 0.75415 1.74799 0.75415 1.88C0.75415 2.01201 0.780288 2.14272 0.831057 2.26458C0.881826 2.38644 0.95622 2.49704 1.04995 2.59L5.28995 6.83C5.38291 6.92373 5.49351 6.99812 5.61537 7.04889C5.73723 7.09966 5.86794 7.1258 5.99995 7.1258C6.13196 7.1258 6.26267 7.09966 6.38453 7.04889C6.50638 6.99812 6.61699 6.92373 6.70995 6.83L10.9999 2.59C11.0937 2.49704 11.1681 2.38644 11.2188 2.26458C11.2696 2.14272 11.2957 2.01201 11.2957 1.88C11.2957 1.74799 11.2696 1.61728 11.2188 1.49542C11.1681 1.37356 11.0937 1.26296 10.9999 1.17Z"/> 
    </symbol>
    <symbol id="icon_arrow-right-rounded" viewBox="0 0 7 10">
       <path d="M7 8.05681V1.94319C7 1.12982 6.08063 0.656693 5.41876 1.12946L1.13923 4.18627C0.580878 4.58509 0.580878 5.41491 1.13923 5.81373L5.41876 8.87054C6.08063 9.34331 7 8.87018 7 8.05681Z" fill="white"/> 
    </symbol>
    <symbol id="icon_arrow-right" viewBox="0 0 8 14">
       <path d="M7 13L1 7L7 1" stroke="#555555" stroke-width="2" stroke-linecap="round" stroke-linejoin="round"/> 
    </symbol>
    <symbol id="icon_badge" viewBox="0 0 11 22">
       <path d="M0 0H0.115261C0.678749 0 1.21609 0.237706 1.59514 0.654654L9.77696 9.65465C10.4705 10.4175 10.4705 11.5825 9.77696 12.3453L1.59514 21.3453C1.21609 21.7623 0.563488 22 0 22V0Z"/> 
    </symbol>
    <symbol id="icon_burger-close-icon" viewBox="0 0 17 17">
       <rect x="2.68848" y="0.313721" width="20.2398" height="2.52998" transform="rotate(45 2.68848 0.313721)" fill="#4D4D4D"/> <rect width="20.2398" height="2.52998" transform="matrix(-0.707107 0.707107 0.707107 0.707107 15.2112 0.313721)" fill="#4D4D4D"/> 
    </symbol>
    <symbol id="icon_burger-icon" viewBox="0 0 16 14">
       <rect width="16" height="2" fill="#4D4D4D"/> <rect y="6" width="16" height="2" fill="#4D4D4D"/> <rect y="12" width="16" height="2" fill="#4D4D4D"/> 
    </symbol>
    <symbol id="icon_chart-icon" viewBox="0 0 20 20">
       <path d="M15 16.6666V8.33325" stroke="#93A2AD" stroke-width="2" stroke-linecap="round" stroke-linejoin="round"/> <path d="M10 16.6666V3.33325" stroke="#93A2AD" stroke-width="2" stroke-linecap="round" stroke-linejoin="round"/> <path d="M5 16.6667V11.6667" stroke="#93A2AD" stroke-width="2" stroke-linecap="round" stroke-linejoin="round"/> 
    </symbol>
    <symbol id="icon_city-icon" viewBox="0 0 16 20">
       <path d="M8 0C5.87827 0 3.84344 0.84285 2.34315 2.34315C0.84285 3.84344 0 5.87827 0 8C0 13.4 7.05 19.5 7.35 19.76C7.5311 19.9149 7.7616 20.0001 8 20.0001C8.2384 20.0001 8.4689 19.9149 8.65 19.76C9 19.5 16 13.4 16 8C16 5.87827 15.1571 3.84344 13.6569 2.34315C12.1566 0.84285 10.1217 0 8 0ZM8 17.65C5.87 15.65 2 11.34 2 8C2 6.4087 2.63214 4.88258 3.75736 3.75736C4.88258 2.63214 6.4087 2 8 2C9.5913 2 11.1174 2.63214 12.2426 3.75736C13.3679 4.88258 14 6.4087 14 8C14 11.34 10.13 15.66 8 17.65ZM8 4C7.2089 4 6.4355 4.2346 5.77772 4.67412C5.11992 5.11365 4.60723 5.73836 4.30448 6.46927C4.00173 7.20017 3.92252 8.0044 4.07686 8.7804C4.2312 9.5563 4.61216 10.269 5.17157 10.8284C5.73098 11.3878 6.4437 11.7688 7.2196 11.9231C7.9956 12.0775 8.7998 11.9983 9.5307 11.6955C10.2616 11.3928 10.8864 10.8801 11.3259 10.2223C11.7654 9.5645 12 8.7911 12 8C12 6.93913 11.5786 5.92172 10.8284 5.17157C10.0783 4.42143 9.0609 4 8 4ZM8 10C7.6044 10 7.2178 9.8827 6.8889 9.6629C6.56 9.4432 6.3036 9.1308 6.1522 8.7654C6.0009 8.3999 5.96126 7.99778 6.0384 7.60982C6.1156 7.22186 6.3061 6.86549 6.5858 6.58579C6.8655 6.30608 7.2219 6.1156 7.6098 6.03843C7.9978 5.96126 8.3999 6.00087 8.7654 6.15224C9.1308 6.30362 9.4432 6.55996 9.6629 6.88886C9.8827 7.21776 10 7.60444 10 8C10 8.5304 9.7893 9.0391 9.4142 9.4142C9.0391 9.7893 8.5304 10 8 10Z" fill="#C4C4C4"/> 
    </symbol>
    <symbol id="icon_close-icon" viewBox="0 0 20 20">
       <path d="M11.175 9.99999L14.7583 6.42499C14.9153 6.26807 15.0034 6.05524 15.0034 5.83333C15.0034 5.61141 14.9153 5.39858 14.7583 5.24166C14.6014 5.08474 14.3886 4.99658 14.1667 4.99658C13.9448 4.99658 13.7319 5.08474 13.575 5.24166L10 8.82499L6.42501 5.24166C6.26809 5.08474 6.05526 4.99658 5.83334 4.99658C5.61143 4.99658 5.3986 5.08474 5.24168 5.24166C5.08476 5.39858 4.9966 5.61141 4.9966 5.83333C4.9966 6.05524 5.08476 6.26807 5.24168 6.42499L8.82501 9.99999L5.24168 13.575C5.16357 13.6525 5.10157 13.7446 5.05927 13.8462C5.01696 13.9477 4.99518 14.0567 4.99518 14.1667C4.99518 14.2767 5.01696 14.3856 5.05927 14.4871C5.10157 14.5887 5.16357 14.6809 5.24168 14.7583C5.31915 14.8364 5.41131 14.8984 5.51286 14.9407C5.61441 14.983 5.72333 15.0048 5.83334 15.0048C5.94335 15.0048 6.05228 14.983 6.15382 14.9407C6.25537 14.8984 6.34754 14.8364 6.42501 14.7583L10 11.175L13.575 14.7583C13.6525 14.8364 13.7446 14.8984 13.8462 14.9407C13.9477 14.983 14.0567 15.0048 14.1667 15.0048C14.2767 15.0048 14.3856 14.983 14.4872 14.9407C14.5887 14.8984 14.6809 14.8364 14.7583 14.7583C14.8365 14.6809 14.8984 14.5887 14.9408 14.4871C14.9831 14.3856 15.0048 14.2767 15.0048 14.1667C15.0048 14.0567 14.9831 13.9477 14.9408 13.8462C14.8984 13.7446 14.8365 13.6525 14.7583 13.575L11.175 9.99999Z" fill="#5D5F63"/> 
    </symbol>
    <symbol id="icon_facebook-icon" viewBox="0 0 36 36">
       <rect width="36" height="36" rx="18" fill="#4267B2"/> <path d="M19.1926 25.9999V18.7016H21.5513L21.9044 15.8573H19.1926V14.0413C19.1926 13.2178 19.4128 12.6565 20.5499 12.6565L22 12.6558V10.112C21.7491 10.0774 20.8883 10 19.8869 10C17.7961 10 16.3647 11.3255 16.3647 13.7597V15.8573H14V18.7016H16.3647V26L19.1926 25.9999Z" fill="white"/> 
    </symbol>
    <symbol id="icon_fav-icon" viewBox="0 0 20 20">
       <path d="M17.3668 3.84172C16.9411 3.41589 16.4358 3.0781 15.8796 2.84763C15.3233 2.61716 14.7272 2.49854 14.1251 2.49854C13.523 2.49854 12.9269 2.61716 12.3706 2.84763C11.8144 3.0781 11.3091 3.41589 10.8834 3.84172L10.0001 4.72506L9.11672 3.84172C8.25698 2.98198 7.09092 2.49898 5.87506 2.49898C4.6592 2.49898 3.49313 2.98198 2.63339 3.84172C1.77365 4.70147 1.29065 5.86753 1.29065 7.08339C1.29065 8.29925 1.77365 9.46531 2.63339 10.3251L3.51672 11.2084L10.0001 17.6917L16.4834 11.2084L17.3668 10.3251C17.7926 9.89943 18.1304 9.39406 18.3609 8.83784C18.5913 8.28163 18.71 7.68546 18.71 7.08339C18.71 6.48132 18.5913 5.88514 18.3609 5.32893C18.1304 4.77271 17.7926 4.26735 17.3668 3.84172Z" stroke-width="2" stroke-linecap="round" stroke-linejoin="round"/> 
    </symbol>
    <symbol id="icon_instagram-icon" viewBox="0 0 36 36">
       <rect width="36" height="36" rx="18" fill="#EF35A5"/> <path d="M15.334 18C15.334 16.5273 16.5276 15.3331 18.0003 15.3331C19.4731 15.3331 20.6673 16.5273 20.6673 18C20.6673 19.4727 19.4731 20.6669 18.0003 20.6669C16.5276 20.6669 15.334 19.4727 15.334 18ZM13.8923 18C13.8923 20.2688 15.7314 22.1079 18.0003 22.1079C20.2692 22.1079 22.1084 20.2688 22.1084 18C22.1084 15.7312 20.2692 13.8921 18.0003 13.8921C15.7314 13.8921 13.8923 15.7312 13.8923 18ZM21.311 13.7292C21.3109 13.9191 21.3671 14.1047 21.4726 14.2626C21.578 14.4205 21.7279 14.5436 21.9033 14.6164C22.0787 14.6891 22.2717 14.7082 22.4579 14.6712C22.6442 14.6343 22.8153 14.5429 22.9496 14.4087C23.0839 14.2745 23.1754 14.1035 23.2125 13.9173C23.2497 13.7311 23.2307 13.538 23.1581 13.3626C23.0855 13.1871 22.9625 13.0372 22.8047 12.9316C22.6469 12.8261 22.4613 12.7697 22.2714 12.7696H22.271C22.0165 12.7697 21.7724 12.8708 21.5924 13.0508C21.4124 13.2307 21.3112 13.4747 21.311 13.7292ZM14.7682 24.5118C13.9882 24.4763 13.5642 24.3464 13.2825 24.2366C12.909 24.0912 12.6425 23.918 12.3623 23.6382C12.0821 23.3584 11.9086 23.0922 11.7638 22.7187C11.654 22.4371 11.5241 22.013 11.4886 21.233C11.4499 20.3898 11.4421 20.1364 11.4421 18.0001C11.4421 15.8637 11.4505 15.6111 11.4886 14.7671C11.5242 13.9871 11.655 13.5639 11.7638 13.2815C11.9093 12.908 12.0825 12.6415 12.3623 12.3613C12.6421 12.0811 12.9083 11.9076 13.2825 11.7629C13.5641 11.6531 13.9882 11.5231 14.7682 11.4877C15.6115 11.4489 15.8648 11.4412 18.0003 11.4412C20.1358 11.4412 20.3894 11.4495 21.2334 11.4877C22.0134 11.5232 22.4367 11.6541 22.7191 11.7629C23.0926 11.9076 23.3591 12.0815 23.6393 12.3613C23.9195 12.6411 24.0923 12.908 24.2378 13.2815C24.3476 13.5631 24.4775 13.9871 24.513 14.7671C24.5518 15.6111 24.5595 15.8637 24.5595 18.0001C24.5595 20.1364 24.5518 20.3891 24.513 21.233C24.4774 22.013 24.3469 22.4369 24.2378 22.7187C24.0923 23.0922 23.9192 23.3587 23.6393 23.6382C23.3595 23.9178 23.0926 24.0912 22.7191 24.2366C22.4375 24.3464 22.0134 24.4764 21.2334 24.5118C20.3901 24.5506 20.1368 24.5583 18.0003 24.5583C15.8639 24.5583 15.6112 24.5506 14.7682 24.5118ZM14.7019 10.0484C13.8503 10.0872 13.2683 10.2223 12.76 10.42C12.2337 10.6243 11.7881 10.8982 11.3428 11.3428C10.8976 11.7873 10.6243 12.2336 10.42 12.7599C10.2223 13.2685 10.0872 13.8501 10.0484 14.7018C10.009 15.5548 10 15.8275 10 18C10 20.1725 10.009 20.4452 10.0484 21.2982C10.0872 22.15 10.2223 22.7315 10.42 23.2401C10.6243 23.7661 10.8976 24.2129 11.3428 24.6572C11.788 25.1016 12.2337 25.3752 12.76 25.58C13.2693 25.7777 13.8503 25.9128 14.7019 25.9516C15.5554 25.9903 15.8277 26 18.0003 26C20.173 26 20.4457 25.991 21.2987 25.9516C22.1504 25.9128 22.732 25.7777 23.2406 25.58C23.7666 25.3752 24.2125 25.1018 24.6578 24.6572C25.1031 24.2127 25.3758 23.7661 25.5806 23.2401C25.7784 22.7315 25.914 22.1499 25.9522 21.2982C25.991 20.4446 26 20.1725 26 18C26 15.8275 25.991 15.5548 25.9522 14.7018C25.9134 13.85 25.7784 13.2682 25.5806 12.7599C25.3758 12.2339 25.1024 11.788 24.6578 11.3428C24.2132 10.8975 23.7666 10.6243 23.2412 10.42C22.732 10.2223 22.1504 10.0866 21.2993 10.0484C20.4463 10.0097 20.1736 10 18.001 10C15.8283 10 15.5554 10.009 14.7019 10.0484Z" fill="white"/> 
    </symbol>
    <symbol id="icon_mastercard-icon" viewBox="0 0 28 22">
       <path d="M4.95268 21.2707V19.8723C4.95268 19.3365 4.62768 18.9874 4.06775 18.9874C3.78825 18.9874 3.48461 19.0802 3.27475 19.3829C3.11225 19.1267 2.87918 18.9874 2.52911 18.9874C2.40182 18.9819 2.27523 19.0089 2.16121 19.0657C2.04719 19.1226 1.94948 19.2074 1.87725 19.3124V19.0338H1.38696V21.2707H1.87632V20.0357C1.87632 19.6392 2.08618 19.4526 2.41211 19.4526C2.73803 19.4526 2.90146 19.6624 2.90146 20.0357V21.2707H3.39082V20.0357C3.39082 19.6392 3.62296 19.4526 3.92661 19.4526C4.25346 19.4526 4.41596 19.6624 4.41596 20.0357V21.2707H4.95175H4.95268ZM12.2002 19.0329H11.4081V18.3578H10.9187V19.0338H10.4758V19.4767H10.9187V20.5019C10.9187 21.0145 11.1286 21.3172 11.6876 21.3172C11.9 21.3131 12.1082 21.2569 12.294 21.1537L12.1547 20.735C12.0289 20.8134 11.8831 20.8537 11.735 20.851C11.5019 20.851 11.4081 20.7117 11.4081 20.4787V19.4758H12.2002V19.0338V19.0329ZM16.349 18.9864C16.2315 18.9837 16.1153 19.0126 16.0127 19.0701C15.9102 19.1276 15.8249 19.2116 15.7659 19.3133V19.0338H15.2765V21.2707H15.7659V20.0125C15.7659 19.6392 15.9293 19.4294 16.232 19.4294C16.3249 19.4294 16.4419 19.4526 16.5347 19.4758L16.674 19.0106C16.5812 18.9874 16.4419 18.9874 16.349 18.9874V18.9864ZM10.0802 19.2195C9.84718 19.057 9.52032 18.9874 9.17025 18.9874C8.61218 18.9874 8.23889 19.2659 8.23889 19.7098C8.23889 20.0822 8.51839 20.292 9.00775 20.3617L9.24082 20.3849C9.49711 20.4313 9.63732 20.5019 9.63732 20.618C9.63732 20.7814 9.45161 20.8975 9.12475 20.8975C8.79789 20.8975 8.54161 20.7814 8.37911 20.6653L8.14603 21.0377C8.40232 21.2234 8.75146 21.3172 9.10154 21.3172C9.75339 21.3172 10.1267 21.0145 10.1267 20.5947C10.1267 20.1992 9.82396 19.9893 9.35782 19.9187L9.12475 19.8955C8.91489 19.8723 8.75146 19.8259 8.75146 19.6857C8.75146 19.5232 8.91489 19.4294 9.17118 19.4294C9.45068 19.4294 9.73018 19.5464 9.87039 19.616L10.0802 19.2195ZM23.083 18.9874C22.9658 18.9846 22.85 19.0133 22.7476 19.0705C22.6452 19.1276 22.56 19.2111 22.5008 19.3124V19.0338H22.0115V21.2707H22.5008V20.0125C22.5008 19.6392 22.6642 19.4294 22.967 19.4294C23.0598 19.4294 23.1768 19.4526 23.2697 19.4758L23.409 19.0106C23.3161 18.9874 23.1768 18.9874 23.084 18.9874H23.083ZM16.8384 20.1518C16.8384 20.8278 17.3045 21.3172 18.027 21.3172C18.352 21.3172 18.586 21.2475 18.819 21.0609L18.586 20.6644C18.4002 20.8046 18.2127 20.8742 18.0028 20.8742C17.6073 20.8742 17.3277 20.5957 17.3277 20.1518C17.3277 19.733 17.6063 19.4526 18.0028 19.4294C18.2127 19.4294 18.3993 19.4999 18.586 19.6392L18.8181 19.2437C18.586 19.057 18.3529 18.9874 18.027 18.9874C17.3045 18.9874 16.8384 19.4767 16.8384 20.1518ZM21.3587 20.1518V19.0338H20.8693V19.3124C20.7068 19.1034 20.4737 18.9874 20.1701 18.9874C19.5415 18.9874 19.0521 19.4767 19.0521 20.1518C19.0521 20.8278 19.5415 21.3172 20.1701 21.3172C20.497 21.3172 20.73 21.2011 20.8693 20.9912V21.2707H21.3587V20.1518ZM19.5647 20.1518C19.5647 19.7562 19.821 19.4294 20.2407 19.4294C20.6362 19.4294 20.9157 19.733 20.9157 20.1518C20.9157 20.5483 20.6372 20.8742 20.2407 20.8742C19.821 20.851 19.5647 20.5483 19.5647 20.1518ZM13.7147 18.9874C13.0628 18.9874 12.5967 19.4526 12.5967 20.1518C12.5967 20.851 13.0628 21.3172 13.7388 21.3172C14.0647 21.3172 14.3907 21.2243 14.6479 21.0145L14.4148 20.6644C14.2275 20.8095 13.9989 20.8911 13.762 20.8975C13.4593 20.8975 13.1557 20.7582 13.086 20.3617H14.7407V20.176C14.764 19.4526 14.3442 18.9874 13.7156 18.9874H13.7147ZM13.7147 19.4062C14.0183 19.4062 14.2282 19.5928 14.2746 19.9419H13.1092C13.1557 19.6392 13.3655 19.4062 13.7156 19.4062H13.7147ZM25.8567 20.1518V18.1479H25.3673V19.3133C25.2039 19.1034 24.9708 18.9874 24.6681 18.9874C24.0385 18.9874 23.5492 19.4767 23.5492 20.1518C23.5492 20.8278 24.0385 21.3172 24.6681 21.3172C24.994 21.3172 25.2271 21.2011 25.3673 20.9912V21.2707H25.8567V20.1518ZM24.0627 20.1518C24.0627 19.7562 24.319 19.4294 24.7378 19.4294C25.1343 19.4294 25.4137 19.733 25.4137 20.1518C25.4137 20.5483 25.1343 20.8742 24.7378 20.8742C24.319 20.851 24.0627 20.5483 24.0627 20.1518ZM7.70311 20.1518V19.0338H7.21375V19.3124C7.05032 19.1034 6.81725 18.9874 6.51453 18.9874C5.88496 18.9874 5.39561 19.4767 5.39561 20.1518C5.39561 20.8278 5.88496 21.3172 6.51453 21.3172C6.84046 21.3172 7.07353 21.2011 7.21375 20.9912V21.2707H7.70311V20.1518ZM5.88496 20.1518C5.88496 19.7562 6.14125 19.4294 6.56096 19.4294C6.95746 19.4294 7.23696 19.733 7.23696 20.1518C7.23696 20.5483 6.95746 20.8742 6.56096 20.8742C6.14125 20.851 5.88496 20.5483 5.88496 20.1518Z" fill="black"/> <path d="M9.90234 2.04639H17.2427V15.2367H9.90234V2.04639Z" fill="#FF5F00"/> <path d="M10.3703 8.6406C10.3705 7.3716 10.6577 6.11914 11.2106 4.97692C11.7634 3.8347 12.5676 2.83237 13.5627 2.04498C12.0894 0.881759 10.2668 0.249669 8.38964 0.250979C7.28769 0.250249 6.19641 0.466749 5.1782 0.888109C4.15999 1.30947 3.23483 1.92742 2.45564 2.70661C1.67644 3.48581 1.05849 4.41097 0.637133 5.42918C0.215774 6.44739 -0.000730665 7.5387 1.85258e-06 8.6406C-0.000608576 9.7425 0.215986 10.8337 0.6374 11.8518C1.05881 12.8699 1.67678 13.7949 2.45597 14.574C3.23515 15.3531 4.16027 15.971 5.17842 16.3923C6.19656 16.8136 7.28777 17.0301 8.38964 17.0293C10.2668 17.0307 12.0894 16.3986 13.5627 15.2353C12.5657 14.4498 11.7603 13.448 11.2072 12.3055C10.6542 11.1631 10.368 9.9099 10.3703 8.6406Z" fill="#EB001B"/> <path d="M27.138 8.6406C27.1386 9.7424 26.9221 10.8335 26.5007 11.8516C26.0794 12.8696 25.4615 13.7946 24.6824 14.5737C23.9033 15.3528 22.9783 15.9707 21.9603 16.392C20.9422 16.8134 19.8511 17.0299 18.7493 17.0293C16.8719 17.0309 15.0488 16.3988 13.5753 15.2353C14.5743 14.4516 15.3811 13.4501 15.9344 12.3073C16.4876 11.1644 16.7726 9.9103 16.7677 8.6406C16.7676 7.3716 16.4803 6.11914 15.9274 4.97692C15.3746 3.8347 14.5705 2.83237 13.5753 2.04498C15.0488 0.881559 16.8719 0.249459 18.7493 0.250979C23.3866 0.250979 27.138 4.02655 27.138 8.6406Z" fill="#F79E1B"/> 
    </symbol>
    <symbol id="icon_phone-icon" viewBox="0 0 16 16">
       <path d="M15.6413 12.6447L13.1703 10.1735C12.6782 9.68326 11.8631 9.69815 11.3538 10.2077L10.109 11.4522C10.0303 11.4089 9.94889 11.3636 9.8633 11.3156C9.07718 10.88 8.00123 10.283 6.86902 9.14995C5.73346 8.01453 5.13589 6.93692 4.69898 6.15029C4.65287 6.06696 4.6087 5.98661 4.56507 5.9103L5.40057 5.07605L5.81133 4.66478C6.32142 4.15455 6.33549 3.33974 5.84447 2.84813L3.37352 0.376627C2.8825 -0.114299 2.0671 -0.0994062 1.557 0.410826L0.860607 1.11122L0.879637 1.13012C0.646126 1.42807 0.450997 1.77172 0.305787 2.14231C0.171932 2.49506 0.0885941 2.83167 0.0504876 3.16898C-0.275785 5.87385 0.960263 8.3459 4.31474 11.7004C8.95164 16.337 12.6884 15.9867 12.8496 15.9696C13.2007 15.9277 13.5372 15.8438 13.8791 15.711C14.2465 15.5675 14.5899 15.3726 14.8877 15.1396L14.9029 15.1531L15.6084 14.4623C16.1174 13.9522 16.1321 13.1371 15.6413 12.6447Z" fill="#DADDE0"/> 
    </symbol>
    <symbol id="icon_phone" viewBox="0 0 20 20">
       <path d="M18.3333 14.1V16.6C18.3343 16.8321 18.2867 17.0618 18.1937 17.2745C18.1008 17.4871 17.9644 17.678 17.7934 17.8349C17.6224 17.9918 17.4205 18.1113 17.2006 18.1856C16.9808 18.26 16.7478 18.2876 16.5167 18.2667C13.9523 17.9881 11.4892 17.1118 9.32498 15.7084C7.31151 14.4289 5.60443 12.7219 4.32499 10.7084C2.91663 8.53438 2.04019 6.0592 1.76665 3.48337C1.74583 3.25293 1.77321 3.02067 1.84707 2.80139C1.92092 2.58211 2.03963 2.38061 2.19562 2.20972C2.35162 2.03883 2.54149 1.9023 2.75314 1.80881C2.9648 1.71532 3.1936 1.66692 3.42499 1.66671H5.92499C6.32941 1.66273 6.72148 1.80594 7.02812 2.06965C7.33476 2.33336 7.53505 2.69958 7.59165 3.10004C7.69717 3.9001 7.89286 4.68565 8.17499 5.44171C8.2871 5.73998 8.31137 6.06414 8.24491 6.37577C8.17844 6.68741 8.02404 6.97347 7.79998 7.20004L6.74165 8.25837C7.92795 10.3447 9.65536 12.0721 11.7417 13.2584L12.8 12.2C13.0266 11.976 13.3126 11.8216 13.6243 11.7551C13.9359 11.6887 14.26 11.7129 14.5583 11.825C15.3144 12.1072 16.0999 12.3029 16.9 12.4084C17.3048 12.4655 17.6745 12.6694 17.9388 12.9813C18.203 13.2932 18.3435 13.6914 18.3333 14.1Z" stroke="#DADDE0" stroke-width="2" stroke-linecap="round" stroke-linejoin="round"/> 
    </symbol>
    <symbol id="icon_presence" viewBox="0 0 14 10">
       <path d="M12.3335 1L5.00008 8.3333L1.66675 5" stroke="#FF4E4E" stroke-width="2" stroke-linecap="round" stroke-linejoin="round"/> 
    </symbol>
    <symbol id="icon_search-icon" viewBox="0 0 19 19">
       <path d="M18.0992 16.7591L14.1764 12.8591C15.3759 11.3628 15.9567 9.4635 15.7995 7.55183C15.6424 5.64017 14.7592 3.8614 13.3315 2.58128C11.9039 1.30117 10.0403 0.617006 8.12398 0.669473C6.20766 0.72194 4.38426 1.50705 3.02871 2.86337C1.67316 4.21968 0.888497 6.04411 0.836059 7.96152C0.783622 9.87892 1.4674 11.7436 2.74679 13.172C4.02618 14.6005 5.80394 15.4842 7.71452 15.6414C9.62511 15.7987 11.5233 15.2175 13.0188 14.0174L16.9166 17.9174C16.994 17.9955 17.0861 18.0575 17.1876 18.0998C17.2891 18.1421 17.3979 18.1639 17.5079 18.1639C17.6178 18.1639 17.7267 18.1421 17.8282 18.0998C17.9297 18.0575 18.0218 17.9955 18.0992 17.9174C18.2493 17.762 18.3333 17.5544 18.3333 17.3382C18.3333 17.1221 18.2493 16.9145 18.0992 16.7591ZM8.34642 14.0174C7.19334 14.0174 6.06617 13.6753 5.10742 13.0343C4.14868 12.3933 3.40143 11.4823 2.96017 10.4164C2.51891 9.3505 2.40345 8.17761 2.62841 7.04605C2.85336 5.9145 3.40862 4.8751 4.22396 4.05929C5.0393 3.24349 6.07812 2.68791 7.20903 2.46283C8.33995 2.23775 9.51217 2.35327 10.5775 2.79478C11.6428 3.23629 12.5533 3.98397 13.1939 4.94325C13.8345 5.90254 14.1764 7.03036 14.1764 8.18408C14.1764 9.73118 13.5622 11.2149 12.4689 12.3089C11.3755 13.4028 9.89264 14.0174 8.34642 14.0174Z"/> 
    </symbol>
    <symbol id="icon_types-summer" viewBox="0 0 20 20">
       <path fill-rule="evenodd" clip-rule="evenodd" d="M8.706 5.1699C9.66121 4.91406 10.6708 4.94721 11.6072 5.26515C12.5436 5.5831 13.3646 6.17157 13.9666 6.95614C14.5685 7.74071 14.9243 8.68615 14.9889 9.67292C15.0535 10.6597 14.8241 11.6435 14.3296 12.4998C13.8351 13.3562 13.0978 14.0467 12.2109 14.4841C11.324 14.9214 10.3274 15.086 9.34694 14.9569C8.36652 14.8278 7.44639 14.4109 6.7029 13.7589C5.95942 13.1069 5.42596 12.2491 5.17 11.2939C5.00002 10.6596 4.95665 9.99806 5.04237 9.34701C5.12808 8.69597 5.3412 8.06818 5.66955 7.4995C5.99791 6.93082 6.43507 6.4324 6.95606 6.03268C7.47706 5.63297 8.07169 5.33979 8.706 5.1699ZM9.224 7.0999C9.79707 6.94702 10.4026 6.96744 10.9641 7.15859C11.5256 7.34974 12.0178 7.70303 12.3785 8.17382C12.7393 8.64461 12.9524 9.21177 12.9909 9.80364C13.0295 10.3955 12.8917 10.9855 12.595 11.4991C12.2983 12.0127 11.8561 12.4268 11.3241 12.6892C10.7922 12.9515 10.1944 13.0502 9.60633 12.973C9.01827 12.8957 8.46632 12.6458 8.02021 12.2549C7.57411 11.864 7.25388 11.3497 7.1 10.7769C6.99766 10.396 6.97145 9.99865 7.02284 9.60761C7.07423 9.21656 7.20224 8.83948 7.39952 8.49796C7.5968 8.15643 7.85948 7.85716 8.17255 7.61726C8.48562 7.37737 8.84291 7.20156 9.224 7.0999ZM7.641 1.1999C7.90037 1.13056 8.17667 1.16702 8.40918 1.30127C8.64169 1.43553 8.81139 1.65659 8.881 1.9159L9.143 2.8939C9.20294 3.15006 9.16089 3.41949 9.02572 3.64519C8.89056 3.87089 8.6729 4.03515 8.41878 4.10323C8.16466 4.17131 7.89403 4.13785 7.66414 4.00995C7.43425 3.88204 7.26313 3.66972 7.187 3.4179L6.925 2.4399C6.85565 2.18052 6.89211 1.90423 7.02637 1.67172C7.16062 1.43921 7.38169 1.26951 7.641 1.1999ZM11.572 15.8709C11.7004 15.8364 11.8344 15.8276 11.9662 15.8449C12.0981 15.8623 12.2252 15.9054 12.3404 15.9719C12.4555 16.0384 12.5565 16.1269 12.6374 16.2325C12.7183 16.338 12.7776 16.4584 12.812 16.5869L13.074 17.5649C13.1339 17.8211 13.0919 18.0905 12.9567 18.3162C12.8216 18.5419 12.6039 18.7062 12.3498 18.7742C12.0957 18.8423 11.825 18.8089 11.5951 18.681C11.3652 18.553 11.1941 18.3407 11.118 18.0889L10.856 17.1109C10.8212 16.9823 10.8121 16.848 10.8293 16.7159C10.8465 16.5838 10.8896 16.4563 10.9561 16.3408C11.0226 16.2254 11.1112 16.1242 11.2169 16.043C11.3226 15.9619 11.4433 15.9023 11.572 15.8679V15.8709ZM1.913 11.1209L2.891 10.8589C3.14715 10.799 3.41658 10.841 3.64228 10.9762C3.86798 11.1113 4.03225 11.329 4.10033 11.5831C4.1684 11.8372 4.13495 12.1079 4.00704 12.3378C3.87914 12.5676 3.66682 12.7388 3.415 12.8149L2.437 13.0769C2.17735 13.1463 1.90079 13.1096 1.66815 12.9751C1.43551 12.8405 1.26585 12.619 1.1965 12.3594C1.12714 12.0998 1.16377 11.8232 1.29833 11.5906C1.43289 11.3579 1.65435 11.1883 1.914 11.1189L1.913 11.1209ZM16.584 7.1899L17.562 6.9279C17.6919 6.88861 17.8284 6.87585 17.9634 6.89035C18.0984 6.90486 18.229 6.94634 18.3477 7.01234C18.4663 7.07833 18.5704 7.1675 18.6539 7.27454C18.7374 7.38157 18.7985 7.5043 18.8337 7.63542C18.8688 7.76654 18.8772 7.90338 18.8584 8.03782C18.8396 8.17226 18.794 8.30155 18.7242 8.418C18.6545 8.53446 18.5621 8.63572 18.4524 8.71575C18.3428 8.79578 18.2182 8.85297 18.086 8.8839L17.108 9.1459C16.8483 9.21539 16.5717 9.17888 16.339 9.04442C16.1063 8.90996 15.9365 8.68855 15.867 8.4289C15.7975 8.16925 15.834 7.89264 15.9685 7.6599C16.1029 7.42717 16.3243 7.25739 16.584 7.1879V7.1899ZM3.556 3.5559C3.74595 3.36611 4.00348 3.2595 4.272 3.2595C4.54051 3.2595 4.79805 3.36611 4.988 3.5559L5.7 4.2719C5.86505 4.46578 5.95104 4.71472 5.94084 4.96914C5.93064 5.22356 5.825 5.46481 5.64495 5.64485C5.4649 5.8249 5.22365 5.93054 4.96923 5.94074C4.71481 5.95094 4.46588 5.86496 4.272 5.6999L3.556 4.9839C3.36742 4.79411 3.26159 4.53744 3.26159 4.2699C3.26159 4.00236 3.36742 3.74568 3.556 3.5559ZM14.3 14.2999C14.394 14.2058 14.5056 14.1312 14.6285 14.0802C14.7513 14.0293 14.883 14.0031 15.016 14.0031C15.149 14.0031 15.2807 14.0293 15.4035 14.0802C15.5264 14.1312 15.638 14.2058 15.732 14.2999L16.448 15.0159C16.6289 15.2076 16.728 15.4623 16.7242 15.7258C16.7204 15.9894 16.614 16.2411 16.4276 16.4275C16.2412 16.6139 15.9895 16.7203 15.7259 16.7241C15.4624 16.7279 15.2077 16.6288 15.016 16.4479L14.3 15.7279C14.1112 15.5382 14.0052 15.2815 14.0052 15.0139C14.0052 14.7463 14.1112 14.4896 14.3 14.2999ZM3.56 15.0159L4.272 14.2999C4.46588 14.1348 4.71481 14.0489 4.96923 14.0591C5.22365 14.0693 5.4649 14.1749 5.64495 14.3549C5.825 14.535 5.93064 14.7762 5.94084 15.0307C5.95104 15.2851 5.86505 15.534 5.7 15.7279L4.984 16.4439C4.79059 16.6148 4.53924 16.7055 4.28125 16.6973C4.02327 16.6892 3.77812 16.5829 3.59587 16.4001C3.41361 16.2174 3.30799 15.9719 3.30058 15.7139C3.29317 15.4559 3.38453 15.2048 3.556 15.0119L3.56 15.0159ZM14.3 4.2719L15.016 3.5559C15.109 3.45736 15.2208 3.37848 15.3448 3.32393C15.4689 3.26938 15.6026 3.24026 15.7381 3.23831C15.8735 3.23635 16.008 3.26159 16.1336 3.31253C16.2591 3.36348 16.3732 3.43909 16.469 3.5349C16.5648 3.63071 16.6404 3.74476 16.6914 3.87031C16.7423 3.99587 16.7675 4.13036 16.7656 4.26584C16.7636 4.40132 16.7345 4.53503 16.68 4.65905C16.6254 4.78308 16.5465 4.8949 16.448 4.9879L15.732 5.7039C15.639 5.80244 15.5272 5.88132 15.4031 5.93587C15.2791 5.99042 15.1454 6.01954 15.0099 6.02149C14.8745 6.02345 14.74 5.99821 14.6144 5.94727C14.4889 5.89632 14.3748 5.82071 14.279 5.7249C14.1832 5.62909 14.1076 5.51504 14.0566 5.38949C14.0057 5.26393 13.9804 5.12944 13.9824 4.99396C13.9844 4.85848 14.0135 4.72477 14.068 4.60075C14.1226 4.47672 14.2015 4.3649 14.3 4.2719ZM1.2 7.6409C1.2696 7.38159 1.4393 7.16053 1.67181 7.02627C1.90432 6.89202 2.18062 6.85555 2.44 6.9249L3.418 7.1869C3.66982 7.26304 3.88214 7.43415 4.01004 7.66404C4.13795 7.89393 4.1714 8.16457 4.10333 8.41868C4.03525 8.6728 3.87098 8.89047 3.64528 9.02563C3.41958 9.16079 3.15015 9.20285 2.894 9.1429L1.916 8.8809C1.65669 8.81129 1.43562 8.64159 1.30137 8.40908C1.16711 8.17657 1.13065 7.90028 1.2 7.6409ZM15.871 11.5719C15.9406 11.3126 16.1103 11.0915 16.3428 10.9573C16.5753 10.823 16.8516 10.7866 17.111 10.8559L18.089 11.1179C18.2212 11.1488 18.3458 11.206 18.4554 11.286C18.5651 11.3661 18.6575 11.4673 18.7272 11.5838C18.797 11.7003 18.8426 11.8295 18.8614 11.964C18.8802 12.0984 18.8718 12.2353 18.8367 12.3664C18.8015 12.4975 18.7404 12.6202 18.6569 12.7273C18.5734 12.8343 18.4693 12.9235 18.3507 12.9895C18.232 13.0555 18.1014 13.0969 17.9664 13.1114C17.8314 13.126 17.6949 13.1132 17.565 13.0739L16.587 12.8119C16.4583 12.7779 16.3375 12.7188 16.2316 12.638C16.1258 12.5572 16.0369 12.4563 15.9701 12.3411C15.9033 12.2259 15.8599 12.0987 15.8424 11.9667C15.8249 11.8347 15.8336 11.7005 15.868 11.5719H15.871ZM6.928 17.5619L7.19 16.5839C7.26613 16.3321 7.43725 16.1198 7.66714 15.9919C7.89703 15.8639 8.16766 15.8305 8.42178 15.8986C8.6759 15.9666 8.89356 16.1309 9.02873 16.3566C9.16389 16.5823 9.20594 16.8517 9.146 17.1079L8.884 18.0859C8.84959 18.2145 8.79018 18.3351 8.70917 18.4408C8.62816 18.5465 8.52713 18.6351 8.41184 18.7018C8.29656 18.7684 8.16928 18.8117 8.03728 18.8291C7.90527 18.8465 7.77113 18.8378 7.6425 18.8034C7.51387 18.769 7.39327 18.7096 7.2876 18.6286C7.18193 18.5476 7.09325 18.4465 7.02662 18.3312C6.96 18.216 6.91673 18.0887 6.89929 17.9567C6.88186 17.8247 6.89059 17.6905 6.925 17.5619H6.928ZM10.859 2.8909L11.121 1.9129C11.1971 1.66108 11.3682 1.44876 11.5981 1.32085C11.828 1.19295 12.0987 1.15949 12.3528 1.22757C12.6069 1.29564 12.8246 1.45991 12.9597 1.68561C13.0949 1.91131 13.1369 2.18074 13.077 2.4369L12.815 3.4149C12.7456 3.67468 12.5759 3.89627 12.3432 4.03092C12.1105 4.16557 11.8338 4.20225 11.574 4.1329C11.3142 4.06355 11.0926 3.89384 10.958 3.6611C10.8233 3.42837 10.7866 3.15168 10.856 2.8919L10.859 2.8909Z" fill="#FF9D0A"/> 
    </symbol>
    <symbol id="icon_types-winter" viewBox="0 0 22 20">
       <path fill-rule="evenodd" clip-rule="evenodd" d="M21.31 10.0049L20.766 9.06287H18.361L19.41 7.24687L18.866 6.29987H17.778L16.185 9.06287H12.623L14.4 5.97787H17.585L18.129 5.03587L17.585 4.09387H15.485L16.685 2.01087L16.141 1.06887H15.062L13.862 3.15187L12.811 1.33487H11.723L11.179 2.27787L12.771 5.03687L10.99 8.12087L9.20899 5.03587L10.8 2.27687L10.258 1.33487H9.16999L8.12099 3.15087L6.92099 1.06787H5.83099L5.28599 2.00987L6.48599 4.09287H4.38599L3.84199 5.03587L4.39199 5.97787H7.57699L9.35799 9.06287H5.79999L4.19999 6.29987H3.11499L2.57099 7.24187L3.61999 9.06287H1.21499L0.67099 10.0049L1.21499 10.9469H3.61999L2.57099 12.7639L3.11499 13.7069H4.19999L5.79999 10.9479H9.35799L7.57699 14.0319H4.39199L3.84799 14.9739L4.39199 15.9159H6.49199L5.28599 17.9999L5.82999 18.9429H6.91899L8.11899 16.8599L9.16999 18.6759H10.258L10.8 17.7339L9.20999 14.9749L10.991 11.8899L12.772 14.9749L11.18 17.7339L11.724 18.6769H12.812L13.86 16.8599L15.06 18.9429H16.148L16.695 17.9999L15.495 15.9169H17.595L18.139 14.9749L17.595 14.0319H14.4L12.619 10.9469H16.181L17.773 13.7059H18.861L19.405 12.7639L18.357 10.9479H20.762L21.31 10.0049Z" fill="#268AE1"/> 
    </symbol>
    <symbol id="icon_tyres-all" viewBox="0 0 22 20">
       <path fill-rule="evenodd" clip-rule="evenodd" d="M11.034 11.9659L10.991 11.8899L9.21002 14.9749L10.8 17.7339L10.256 18.6759H9.17002L8.12102 16.8599L6.92102 18.9429H5.83002L5.28602 17.9999L6.48602 15.9169H4.38602L3.84202 14.9749L4.38602 14.0329H7.57702L9.35802 10.9479H5.80002L4.20002 13.7059H3.11502L2.57102 12.7629L3.62002 10.9479H1.21502L0.671021 10.0059L1.21502 9.06387H3.62002L2.57102 7.24687L3.11502 6.29987H4.20002L5.80002 9.06187H9.35802L7.57702 5.97787H4.39202L3.84802 5.03587L4.39202 4.09287H6.49202L5.29202 2.00987L5.83602 1.06787H6.91902L8.11902 3.15087L9.17002 1.33487H10.258L10.8 2.27687L9.20902 5.03587L10.99 8.12087L11.034 8.04387L12.693 10.3069L11.034 11.9659Z" fill="#268AE1"/> <path fill-rule="evenodd" clip-rule="evenodd" d="M19.562 13.075L18.584 12.813C18.3322 12.7369 18.1199 12.5658 17.992 12.3359C17.8641 12.106 17.8306 11.8353 17.8987 11.5812C17.9668 11.3271 18.131 11.1094 18.3567 10.9743C18.5824 10.8391 18.8519 10.7971 19.108 10.857L20.086 11.119C20.2182 11.1499 20.3428 11.2071 20.4525 11.2871C20.5621 11.3672 20.6545 11.4684 20.7243 11.5849C20.794 11.7014 20.8396 11.8306 20.8584 11.9651C20.8772 12.0995 20.8688 12.2364 20.8337 12.3675C20.7986 12.4986 20.7374 12.6213 20.654 12.7284C20.5705 12.8354 20.4663 12.9246 20.3477 12.9906C20.2291 13.0566 20.0984 13.098 19.9634 13.1125C19.8285 13.1271 19.692 13.1143 19.562 13.075ZM13.572 4.132C13.3127 4.0624 13.0917 3.89269 12.9574 3.66018C12.8232 3.42767 12.7867 3.15138 12.856 2.892L13.118 1.914C13.149 1.78183 13.2061 1.65722 13.2862 1.54758C13.3662 1.43794 13.4675 1.3455 13.5839 1.27576C13.7004 1.20601 13.8297 1.16039 13.9641 1.14159C14.0986 1.1228 14.2354 1.13121 14.3665 1.16634C14.4976 1.20147 14.6204 1.26259 14.7274 1.34607C14.8344 1.42956 14.9236 1.5337 14.9896 1.65232C15.0556 1.77095 15.0971 1.90162 15.1116 2.03659C15.1261 2.17156 15.1133 2.30806 15.074 2.438L14.812 3.416C14.7777 3.54447 14.7184 3.6649 14.6374 3.77043C14.5565 3.87595 14.4556 3.9645 14.3404 4.03099C14.2253 4.09749 14.0981 4.14063 13.9663 4.15796C13.8344 4.17529 13.7005 4.16648 13.572 4.132ZM18.443 16.444C18.2531 16.6338 17.9956 16.7404 17.727 16.7404C17.4585 16.7404 17.201 16.6338 17.011 16.444L16.3 15.728C16.135 15.5341 16.049 15.2852 16.0592 15.0308C16.0694 14.7763 16.175 14.5351 16.3551 14.355C16.5351 14.175 16.7764 14.0694 17.0308 14.0592C17.2852 14.049 17.5342 14.1349 17.728 14.3L18.444 15.016C18.6326 15.2058 18.7384 15.4625 18.7384 15.73C18.7384 15.9975 18.6326 16.2542 18.444 16.444H18.443ZM17.728 5.7C17.5342 5.86505 17.2852 5.95104 17.0308 5.94084C16.7764 5.93064 16.5351 5.825 16.3551 5.64495C16.175 5.4649 16.0694 5.22366 16.0592 4.96924C16.049 4.71482 16.135 4.46589 16.3 4.272L17.016 3.556C17.109 3.45746 17.2209 3.37858 17.3449 3.32403C17.4689 3.26948 17.6026 3.24037 17.7381 3.23841C17.8736 3.23645 18.0081 3.26169 18.1336 3.31263C18.2592 3.36358 18.3732 3.43919 18.469 3.535C18.5648 3.63081 18.6405 3.74486 18.6914 3.87041C18.7423 3.99597 18.7676 4.13046 18.7656 4.26594C18.7637 4.40142 18.7346 4.53512 18.68 4.65915C18.6255 4.78318 18.5466 4.895 18.448 4.988L17.728 5.7ZM20.8 7.641C20.8694 7.90038 20.8329 8.17667 20.6987 8.40918C20.5644 8.64169 20.3433 8.81139 20.084 8.881L19.106 9.143C18.8499 9.20295 18.5804 9.16089 18.3547 9.02573C18.129 8.89056 17.9648 8.6729 17.8967 8.41879C17.8286 8.16467 17.8621 7.89403 17.99 7.66414C18.1179 7.43425 18.3302 7.26313 18.582 7.187L19.56 6.925C19.8194 6.85566 20.0957 6.89212 20.3282 7.02638C20.5607 7.16063 20.7304 7.38169 20.8 7.641ZM14.81 16.584L15.072 17.562C15.1113 17.6919 15.1241 17.8284 15.1096 17.9634C15.0951 18.0984 15.0536 18.229 14.9876 18.3477C14.9216 18.4663 14.8324 18.5704 14.7254 18.6539C14.6184 18.7374 14.4956 18.7985 14.3645 18.8337C14.2334 18.8688 14.0966 18.8772 13.9621 18.8584C13.8277 18.8396 13.6984 18.794 13.5819 18.7242C13.4655 18.6545 13.3642 18.5621 13.2842 18.4524C13.2041 18.3428 13.147 18.2182 13.116 18.086L12.854 17.108C12.7845 16.8482 12.8211 16.5715 12.9557 16.3387C13.0902 16.1058 13.3118 15.936 13.5715 15.8665C13.8313 15.797 14.1081 15.8336 14.3409 15.9681C14.5737 16.1027 14.7435 16.3242 14.813 16.584H14.81ZM11.061 14.894L12.203 12.994C12.9608 12.9447 13.6716 12.6092 14.1911 12.0553C14.7107 11.5014 15.0002 10.7707 15.0009 10.0113C15.0017 9.2519 14.7137 8.52062 14.1952 7.96571C13.6768 7.4108 12.9667 7.07379 12.209 7.023L11.064 5.115C11.7877 4.96976 12.5346 4.98697 13.2509 5.1654C13.9671 5.34382 14.6348 5.67901 15.2058 6.14678C15.7767 6.61455 16.2367 7.20323 16.5526 7.87035C16.8685 8.53746 17.0323 9.26638 17.0323 10.0045C17.0323 10.7426 16.8685 11.4715 16.5526 12.1386C16.2367 12.8058 15.7767 13.3944 15.2058 13.8622C14.6348 14.33 13.9671 14.6652 13.2509 14.8436C12.5346 15.022 11.7877 15.0392 11.064 14.894H11.061Z" fill="#FF9D0A"/> 
    </symbol>
    <symbol id="icon_user-icon" viewBox="0 0 24 24">
       <path d="M15.71 12.71C16.6904 11.9387 17.406 10.8809 17.7572 9.68394C18.1085 8.48697 18.0779 7.21027 17.6698 6.03147C17.2617 4.85267 16.4963 3.83039 15.4801 3.10686C14.4639 2.38332 13.2474 1.99451 12 1.99451C10.7525 1.99451 9.53611 2.38332 8.51993 3.10686C7.50374 3.83039 6.73834 4.85267 6.33021 6.03147C5.92208 7.21027 5.89151 8.48697 6.24276 9.68394C6.59401 10.8809 7.3096 11.9387 8.29 12.71C6.61007 13.383 5.14428 14.4994 4.04889 15.9399C2.95349 17.3805 2.26956 19.0913 2.07 20.89C2.05555 21.0213 2.06711 21.1542 2.10402 21.2811C2.14093 21.4079 2.20246 21.5263 2.28511 21.6293C2.45202 21.8375 2.69478 21.9708 2.96 22C3.22521 22.0292 3.49116 21.9518 3.69932 21.7849C3.90749 21.618 4.04082 21.3752 4.07 21.11C4.28958 19.1552 5.22168 17.3498 6.68822 16.0388C8.15475 14.7278 10.0529 14.003 12.02 14.003C13.9871 14.003 15.8852 14.7278 17.3518 16.0388C18.8183 17.3498 19.7504 19.1552 19.97 21.11C19.9972 21.3557 20.1144 21.5827 20.2991 21.747C20.4838 21.9114 20.7228 22.0015 20.97 22H21.08C21.3421 21.9698 21.5817 21.8373 21.7466 21.6313C21.9114 21.4252 21.9881 21.1624 21.96 20.9C21.7595 19.0962 21.0719 17.381 19.9708 15.9382C18.8698 14.4954 17.3969 13.3795 15.71 12.71ZM12 12C11.2089 12 10.4355 11.7654 9.77772 11.3259C9.11992 10.8864 8.60723 10.2616 8.30448 9.53074C8.00173 8.79983 7.92251 7.99557 8.07686 7.21964C8.2312 6.44372 8.61216 5.73099 9.17157 5.17158C9.73098 4.61217 10.4437 4.2312 11.2196 4.07686C11.9956 3.92252 12.7998 4.00173 13.5307 4.30448C14.2616 4.60724 14.8863 5.11993 15.3259 5.77772C15.7654 6.43552 16 7.20888 16 8C16 9.06087 15.5786 10.0783 14.8284 10.8284C14.0783 11.5786 13.0609 12 12 12Z"/> 
    </symbol>
    <symbol id="icon_view-icon" viewBox="0 0 22 16">
       <path d="M1.83325 7.99992C1.83325 7.99992 5.16659 1.33325 10.9999 1.33325C16.8332 1.33325 20.1665 7.99992 20.1665 7.99992C20.1665 7.99992 16.8332 14.6666 10.9999 14.6666C5.16659 14.6666 1.83325 7.99992 1.83325 7.99992Z" stroke="#93A2AD" stroke-width="2" stroke-linecap="round" stroke-linejoin="round"/> <path d="M11 10.5C12.3807 10.5 13.5 9.3807 13.5 8C13.5 6.61929 12.3807 5.5 11 5.5C9.61929 5.5 8.5 6.61929 8.5 8C8.5 9.3807 9.61929 10.5 11 10.5Z" stroke="#93A2AD" stroke-width="2" stroke-linecap="round" stroke-linejoin="round"/> 
    </symbol>
    <symbol id="icon_visa-icon" viewBox="0 0 45 15">
       <path fill-rule="evenodd" clip-rule="evenodd" d="M29.4722 0.175293C29.9276 0.376833 30.4305 0.325479 30.9043 0.442722C31.3869 0.561902 32.0089 0.539616 32.3025 0.873902C32.6126 1.22854 32.2444 1.80021 32.1901 2.27887C32.1436 2.69358 32.0322 3.10247 31.9944 3.51912C31.9653 3.84565 31.8539 3.82143 31.6049 3.72066C30.5294 3.28463 29.4131 3.10635 28.2553 3.27107C28.2388 3.27398 28.2223 3.27398 28.2068 3.27591C27.4578 3.3825 26.9414 3.73132 26.8697 4.20223C26.765 4.88436 27.2689 5.18086 27.732 5.4667C28.4142 5.88916 29.1351 6.2496 29.8162 6.67497C30.7367 7.24859 31.509 7.96367 31.7919 9.07214C32.1969 10.6602 31.5584 12.3278 30.1457 13.3636C28.982 14.2163 27.6487 14.5845 26.234 14.7172C26.1197 14.7269 25.9695 14.6494 25.8968 14.8151H25.3174C24.7612 14.6067 24.1634 14.6668 23.5927 14.538C23.0278 14.412 22.4668 14.2773 21.9242 14.0748C21.7478 14.0099 21.5967 13.9546 21.6403 13.7095C21.8089 12.7628 21.9687 11.8133 22.1344 10.8443C23.4476 11.612 24.9792 11.9199 26.4869 11.7193C26.89 11.6689 27.2756 11.5623 27.6157 11.3317C28.1923 10.9441 28.2911 10.2814 27.8531 9.74168C27.5518 9.37057 27.1429 9.13997 26.735 8.91226C26.0897 8.55085 25.4308 8.2185 24.8077 7.81542C22.1654 6.10523 22.9794 2.93678 24.5733 1.71591C25.7418 0.82061 27.0828 0.450473 28.5052 0.279939C28.636 0.263467 28.8017 0.348734 28.8928 0.175293H29.4722Z" fill="#1457B0"/> <path fill-rule="evenodd" clip-rule="evenodd" d="M3.94845 2.47817C2.72079 1.72046 1.43694 1.10033 0 0.853253V0.56257C1.9437 0.56257 3.8874 0.559663 5.83111 0.563539C6.94539 0.565477 7.488 1.00925 7.70407 2.09641C8.02867 3.72133 8.34842 5.34818 8.6672 6.97407C8.69821 7.13104 8.74084 7.28995 8.68561 7.45079C8.50733 7.36455 8.48214 7.1727 8.39978 7.02349C7.33684 5.09238 5.86889 3.56242 3.94845 2.47914" fill="#F4B103"/> <path fill-rule="evenodd" clip-rule="evenodd" d="M3.96069 2.4794C5.88114 3.56365 7.34909 5.09362 8.41202 7.02375C8.49438 7.17394 8.51861 7.36579 8.69786 7.45202L9.23853 10.1021C9.63289 9.01493 9.9885 8.03533 10.3422 7.05476C11.0786 5.00932 11.8208 2.96581 12.5436 0.914559C12.6502 0.613217 12.7742 0.48241 13.1162 0.49113C14.1298 0.518261 15.1442 0.508571 16.1587 0.496944C16.4688 0.493068 16.6035 0.518261 16.4494 0.889367C14.6073 5.32178 12.7751 9.75826 10.9526 14.1988C10.8557 14.4342 10.7326 14.5069 10.4894 14.505C9.45916 14.4937 8.42879 14.4934 7.39851 14.504C7.15433 14.5069 7.03031 14.4478 6.96248 14.1842C5.97513 10.3453 4.97615 6.50924 3.98104 2.67222C3.96554 2.61021 3.96651 2.54432 3.96069 2.4794ZM17.5308 14.4992C17.0473 14.4992 16.5647 14.4895 16.0822 14.504C15.8322 14.5108 15.7411 14.4497 15.7867 14.1746C16.3777 10.5798 16.96 6.98306 17.5453 3.3873C17.6829 2.54432 17.8399 1.70328 17.9542 0.856422C17.9939 0.559926 18.1121 0.492099 18.3844 0.495975C19.334 0.50954 20.2835 0.50954 21.2331 0.495975C21.5354 0.492099 21.643 0.529888 21.5829 0.893242C20.9647 4.61399 20.3688 8.33958 19.7671 12.0632C19.6557 12.7473 19.5248 13.4294 19.4425 14.1174C19.4037 14.4371 19.2729 14.5176 18.9774 14.505C18.4968 14.4856 18.0133 14.4992 17.5308 14.4992Z" fill="#1457B0"/> <path fill-rule="evenodd" clip-rule="evenodd" d="M39.1449 4.49971L39.048 4.48227C38.4686 6.0694 37.893 7.6575 37.3097 9.24269C37.2206 9.48493 37.2913 9.55954 37.5374 9.55566C38.0684 9.54597 38.6004 9.55275 39.1313 9.55275C40.1778 9.55275 40.1826 9.55178 39.9724 8.51307C39.7011 7.17496 39.4201 5.83685 39.1449 4.49971ZM42.8424 14.4973H42.3599C41.1787 14.4973 41.1787 14.4973 40.951 13.3132C40.7756 12.4034 40.7756 12.4034 39.8561 12.4034C38.7612 12.4034 37.6663 12.415 36.5714 12.3966C36.2681 12.3908 36.1082 12.4702 36.0172 12.7735C35.8737 13.2512 35.6771 13.7124 35.5191 14.1853C35.4416 14.4178 35.3176 14.507 35.0656 14.5031C34.0516 14.4833 33.0372 14.4839 32.0232 14.505C31.5193 14.5186 31.7063 14.2764 31.8042 14.0438L35.867 4.3253C36.2274 3.46391 36.6169 2.61317 36.9444 1.73919C37.2681 0.877796 37.8882 0.511535 38.7612 0.501845C39.5984 0.493125 40.4355 0.51638 41.2717 0.491187C41.577 0.481498 41.6535 0.623932 41.7049 0.871013C42.3821 4.15476 43.0643 7.43755 43.7445 10.7203C43.9828 11.8734 44.2076 13.0284 44.4644 14.1766C44.5284 14.4634 44.445 14.5089 44.1941 14.5012C43.7445 14.4876 43.293 14.4973 42.8424 14.4973Z" fill="#1457B0"/> 
    </symbol>
    <symbol id="icon_vk-icon" viewBox="0 0 36 36">
       <rect width="36" height="36" rx="18" fill="#5181B8"/> <path fill-rule="evenodd" clip-rule="evenodd" d="M25.6329 14.6094C25.7442 14.2582 25.6329 14 25.1035 14H23.3531C22.908 14 22.703 14.223 22.5917 14.4689C22.5917 14.4689 21.7015 16.5239 20.4404 17.8587C20.0325 18.2452 19.847 18.368 19.6245 18.368C19.5132 18.368 19.3522 18.2452 19.3522 17.8939V14.6094C19.3522 14.1878 19.223 14 18.8521 14H16.1014C15.8234 14 15.6561 14.1956 15.6561 14.3811C15.6561 14.7808 16.2865 14.8729 16.3515 15.9969V18.4384C16.3515 18.9737 16.2495 19.0708 16.0269 19.0708C15.4335 19.0708 13.9902 17.0065 13.134 14.6446C12.9662 14.1854 12.7979 14 12.3505 14H10.6001C10.1 14 10 14.223 10 14.4689C10 14.9081 10.5935 17.0861 12.7631 19.9665C14.2097 21.9335 16.2475 23 18.1019 23C19.2147 23 19.3522 22.7632 19.3522 22.3552V20.8684C19.3522 20.3947 19.4576 20.3002 19.8098 20.3002C20.0696 20.3002 20.5146 20.4232 21.5532 21.3716C22.74 22.4955 22.9355 23 23.6032 23H25.3536C25.8537 23 26.1038 22.7632 25.9595 22.2957C25.8017 21.8299 25.2351 21.1542 24.4831 20.3529C24.0752 19.8962 23.4631 19.4044 23.2779 19.1585C23.0182 18.8424 23.0923 18.7019 23.2779 18.421C23.2779 18.421 25.4103 15.5756 25.6329 14.6095V14.6094Z" fill="white"/> 
    </symbol>
    <symbol id="icon_work" viewBox="0 0 20 20">
       <path d="M9.99999 18.3333C14.6024 18.3333 18.3333 14.6023 18.3333 9.99996C18.3333 5.39759 14.6024 1.66663 9.99999 1.66663C5.39762 1.66663 1.66666 5.39759 1.66666 9.99996C1.66666 14.6023 5.39762 18.3333 9.99999 18.3333Z" stroke="#DADDE0" stroke-width="2" stroke-linecap="round" stroke-linejoin="round"/> <path d="M10 5V10L13.3333 11.6667" stroke="#DADDE0" stroke-width="2" stroke-linecap="round" stroke-linejoin="round"/> 
    </symbol>
    <symbol id="icon_ymoney-icon" viewBox="0 0 19 24">
       <path d="M0.298706 11.4102C0.298706 10.1178 0.414091 9.29908 3.22947 7.30246C5.56024 5.64923 13.0344 0 13.0344 0V9.43015H18.7187V23.0031H2.07471C1.09809 23.0031 0.298706 22.2434 0.298706 21.3157V11.4111" fill="#F9C637"/> <path d="M13.0417 9.42871V14.8933L2.59705 21.653L15.8035 17.573V9.42871H13.0417Z" fill="#C8A332"/> <path d="M8.26594 9.14866C8.87702 8.45635 9.76871 8.21266 10.2598 8.60312C10.749 8.9945 10.6512 9.87143 10.0401 10.5619C9.42809 11.2533 8.53732 11.497 8.04717 11.1065C7.55794 10.7151 7.65486 9.84004 8.26594 9.14866Z" fill="#000106"/> 
    </symbol>
    <symbol id="icon_youtube-icon" viewBox="0 0 36 36">
       <rect width="36" height="36" rx="18" fill="#FF0000"/> <path fill-rule="evenodd" clip-rule="evenodd" d="M24.2602 12.3427C24.9456 12.5272 25.4859 13.0675 25.6704 13.7529C26.0131 15.0049 25.9999 17.6145 25.9999 17.6145C25.9999 17.6145 25.9999 20.2108 25.6704 21.4629C25.4859 22.1482 24.9456 22.6886 24.2602 22.8731C23.0082 23.2026 18 23.2026 18 23.2026C18 23.2026 13.0049 23.2026 11.7397 22.8599C11.0544 22.6754 10.514 22.135 10.3295 21.4497C10 20.2108 10 17.6013 10 17.6013C10 17.6013 10 15.0049 10.3295 13.7529C10.514 13.0675 11.0675 12.514 11.7397 12.3295C12.9917 12 18 12 18 12C18 12 23.0082 12 24.2602 12.3427ZM20.5701 17.6013L16.4054 20V15.2026L20.5701 17.6013Z" fill="white"/> 
    </symbol></svg>