<svg width="36" height="36" viewBox="0 0 36 36" fill="none" xmlns="http://www.w3.org/2000/svg">
<rect width="36" height="36" rx="18" fill="#EF35A5"/>
<path d="M15.334 18C15.334 16.5273 16.5276 15.3331 18.0003 15.3331C19.4731 15.3331 20.6673 16.5273 20.6673 18C20.6673 19.4727 19.4731 20.6669 18.0003 20.6669C16.5276 20.6669 15.334 19.4727 15.334 18ZM13.8923 18C13.8923 20.2688 15.7314 22.1079 18.0003 22.1079C20.2692 22.1079 22.1084 20.2688 22.1084 18C22.1084 15.7312 20.2692 13.8921 18.0003 13.8921C15.7314 13.8921 13.8923 15.7312 13.8923 18ZM21.311 13.7292C21.3109 13.9191 21.3671 14.1047 21.4726 14.2626C21.578 14.4205 21.7279 14.5436 21.9033 14.6164C22.0787 14.6891 22.2717 14.7082 22.4579 14.6712C22.6442 14.6343 22.8153 14.5429 22.9496 14.4087C23.0839 14.2745 23.1754 14.1035 23.2125 13.9173C23.2497 13.7311 23.2307 13.538 23.1581 13.3626C23.0855 13.1871 22.9625 13.0372 22.8047 12.9316C22.6469 12.8261 22.4613 12.7697 22.2714 12.7696H22.271C22.0165 12.7697 21.7724 12.8708 21.5924 13.0508C21.4124 13.2307 21.3112 13.4747 21.311 13.7292ZM14.7682 24.5118C13.9882 24.4763 13.5642 24.3464 13.2825 24.2366C12.909 24.0912 12.6425 23.918 12.3623 23.6382C12.0821 23.3584 11.9086 23.0922 11.7638 22.7187C11.654 22.4371 11.5241 22.013 11.4886 21.233C11.4499 20.3898 11.4421 20.1364 11.4421 18.0001C11.4421 15.8637 11.4505 15.6111 11.4886 14.7671C11.5242 13.9871 11.655 13.5639 11.7638 13.2815C11.9093 12.908 12.0825 12.6415 12.3623 12.3613C12.6421 12.0811 12.9083 11.9076 13.2825 11.7629C13.5641 11.6531 13.9882 11.5231 14.7682 11.4877C15.6115 11.4489 15.8648 11.4412 18.0003 11.4412C20.1358 11.4412 20.3894 11.4495 21.2334 11.4877C22.0134 11.5232 22.4367 11.6541 22.7191 11.7629C23.0926 11.9076 23.3591 12.0815 23.6393 12.3613C23.9195 12.6411 24.0923 12.908 24.2378 13.2815C24.3476 13.5631 24.4775 13.9871 24.513 14.7671C24.5518 15.6111 24.5595 15.8637 24.5595 18.0001C24.5595 20.1364 24.5518 20.3891 24.513 21.233C24.4774 22.013 24.3469 22.4369 24.2378 22.7187C24.0923 23.0922 23.9192 23.3587 23.6393 23.6382C23.3595 23.9178 23.0926 24.0912 22.7191 24.2366C22.4375 24.3464 22.0134 24.4764 21.2334 24.5118C20.3901 24.5506 20.1368 24.5583 18.0003 24.5583C15.8639 24.5583 15.6112 24.5506 14.7682 24.5118ZM14.7019 10.0484C13.8503 10.0872 13.2683 10.2223 12.76 10.42C12.2337 10.6243 11.7881 10.8982 11.3428 11.3428C10.8976 11.7873 10.6243 12.2336 10.42 12.7599C10.2223 13.2685 10.0872 13.8501 10.0484 14.7018C10.009 15.5548 10 15.8275 10 18C10 20.1725 10.009 20.4452 10.0484 21.2982C10.0872 22.15 10.2223 22.7315 10.42 23.2401C10.6243 23.7661 10.8976 24.2129 11.3428 24.6572C11.788 25.1016 12.2337 25.3752 12.76 25.58C13.2693 25.7777 13.8503 25.9128 14.7019 25.9516C15.5554 25.9903 15.8277 26 18.0003 26C20.173 26 20.4457 25.991 21.2987 25.9516C22.1504 25.9128 22.732 25.7777 23.2406 25.58C23.7666 25.3752 24.2125 25.1018 24.6578 24.6572C25.1031 24.2127 25.3758 23.7661 25.5806 23.2401C25.7784 22.7315 25.914 22.1499 25.9522 21.2982C25.991 20.4446 26 20.1725 26 18C26 15.8275 25.991 15.5548 25.9522 14.7018C25.9134 13.85 25.7784 13.2682 25.5806 12.7599C25.3758 12.2339 25.1024 11.788 24.6578 11.3428C24.2132 10.8975 23.7666 10.6243 23.2412 10.42C22.732 10.2223 22.1504 10.0866 21.2993 10.0484C20.4463 10.0097 20.1736 10 18.001 10C15.8283 10 15.5554 10.009 14.7019 10.0484Z" fill="white"/>
</svg>
