<svg width="28" height="26" viewBox="0 0 28 26" fill="none" xmlns="http://www.w3.org/2000/svg">
<g clip-path="url(#clip0)">
<path d="M4.95268 24.2707V22.8723C4.95268 22.3365 4.62768 21.9874 4.06775 21.9874C3.78825 21.9874 3.48461 22.0802 3.27475 22.3829C3.11225 22.1267 2.87918 21.9874 2.52911 21.9874C2.40182 21.9819 2.27523 22.0089 2.16121 22.0657C2.04719 22.1226 1.94948 22.2074 1.87725 22.3124V22.0338H1.38696V24.2707H1.87632V23.0357C1.87632 22.6392 2.08618 22.4526 2.41211 22.4526C2.73803 22.4526 2.90146 22.6624 2.90146 23.0357V24.2707H3.39082V23.0357C3.39082 22.6392 3.62296 22.4526 3.92661 22.4526C4.25346 22.4526 4.41596 22.6624 4.41596 23.0357V24.2707H4.95175H4.95268ZM12.2002 22.0329H11.4081V21.3578H10.9187V22.0338H10.4758V22.4767H10.9187V23.5019C10.9187 24.0145 11.1286 24.3172 11.6876 24.3172C11.9 24.3131 12.1082 24.2569 12.294 24.1537L12.1547 23.735C12.0289 23.8134 11.8831 23.8537 11.735 23.851C11.5019 23.851 11.4081 23.7117 11.4081 23.4787V22.4758H12.2002V22.0338V22.0329ZM16.349 21.9864C16.2315 21.9837 16.1153 22.0126 16.0127 22.0701C15.9102 22.1276 15.8249 22.2116 15.7659 22.3133V22.0338H15.2765V24.2707H15.7659V23.0125C15.7659 22.6392 15.9293 22.4294 16.232 22.4294C16.3249 22.4294 16.4419 22.4526 16.5347 22.4758L16.674 22.0106C16.5812 21.9874 16.4419 21.9874 16.349 21.9874V21.9864ZM10.0802 22.2195C9.84718 22.057 9.52032 21.9874 9.17025 21.9874C8.61218 21.9874 8.23889 22.2659 8.23889 22.7098C8.23889 23.0822 8.51839 23.292 9.00775 23.3617L9.24082 23.3849C9.49711 23.4313 9.63732 23.5019 9.63732 23.618C9.63732 23.7814 9.45161 23.8975 9.12475 23.8975C8.79789 23.8975 8.54161 23.7814 8.37911 23.6653L8.14603 24.0377C8.40232 24.2234 8.75146 24.3172 9.10154 24.3172C9.75339 24.3172 10.1267 24.0145 10.1267 23.5947C10.1267 23.1992 9.82396 22.9893 9.35782 22.9187L9.12475 22.8955C8.91489 22.8723 8.75146 22.8259 8.75146 22.6857C8.75146 22.5232 8.91489 22.4294 9.17118 22.4294C9.45068 22.4294 9.73018 22.5464 9.87039 22.616L10.0802 22.2195ZM23.083 21.9874C22.9658 21.9846 22.85 22.0133 22.7476 22.0705C22.6452 22.1276 22.56 22.2111 22.5008 22.3124V22.0338H22.0115V24.2707H22.5008V23.0125C22.5008 22.6392 22.6642 22.4294 22.967 22.4294C23.0598 22.4294 23.1768 22.4526 23.2697 22.4758L23.409 22.0106C23.3161 21.9874 23.1768 21.9874 23.084 21.9874H23.083ZM16.8384 23.1518C16.8384 23.8278 17.3045 24.3172 18.027 24.3172C18.352 24.3172 18.586 24.2475 18.819 24.0609L18.586 23.6644C18.4002 23.8046 18.2127 23.8742 18.0028 23.8742C17.6073 23.8742 17.3277 23.5957 17.3277 23.1518C17.3277 22.733 17.6063 22.4526 18.0028 22.4294C18.2127 22.4294 18.3993 22.4999 18.586 22.6392L18.8181 22.2437C18.586 22.057 18.3529 21.9874 18.027 21.9874C17.3045 21.9874 16.8384 22.4767 16.8384 23.1518ZM21.3587 23.1518V22.0338H20.8693V22.3124C20.7068 22.1034 20.4737 21.9874 20.1701 21.9874C19.5415 21.9874 19.0521 22.4767 19.0521 23.1518C19.0521 23.8278 19.5415 24.3172 20.1701 24.3172C20.497 24.3172 20.73 24.2011 20.8693 23.9912V24.2707H21.3587V23.1518ZM19.5647 23.1518C19.5647 22.7562 19.821 22.4294 20.2407 22.4294C20.6362 22.4294 20.9157 22.733 20.9157 23.1518C20.9157 23.5483 20.6372 23.8742 20.2407 23.8742C19.821 23.851 19.5647 23.5483 19.5647 23.1518ZM13.7147 21.9874C13.0628 21.9874 12.5967 22.4526 12.5967 23.1518C12.5967 23.851 13.0628 24.3172 13.7388 24.3172C14.0647 24.3172 14.3907 24.2243 14.6479 24.0145L14.4148 23.6644C14.2275 23.8095 13.9989 23.8911 13.762 23.8975C13.4593 23.8975 13.1557 23.7582 13.086 23.3617H14.7407V23.176C14.764 22.4526 14.3442 21.9874 13.7156 21.9874H13.7147ZM13.7147 22.4062C14.0183 22.4062 14.2282 22.5928 14.2746 22.9419H13.1092C13.1557 22.6392 13.3655 22.4062 13.7156 22.4062H13.7147ZM25.8567 23.1518V21.1479H25.3673V22.3133C25.2039 22.1034 24.9708 21.9874 24.6681 21.9874C24.0385 21.9874 23.5492 22.4767 23.5492 23.1518C23.5492 23.8278 24.0385 24.3172 24.6681 24.3172C24.994 24.3172 25.2271 24.2011 25.3673 23.9912V24.2707H25.8567V23.1518ZM24.0627 23.1518C24.0627 22.7562 24.319 22.4294 24.7378 22.4294C25.1343 22.4294 25.4137 22.733 25.4137 23.1518C25.4137 23.5483 25.1343 23.8742 24.7378 23.8742C24.319 23.851 24.0627 23.5483 24.0627 23.1518ZM7.70311 23.1518V22.0338H7.21375V22.3124C7.05032 22.1034 6.81725 21.9874 6.51453 21.9874C5.88496 21.9874 5.39561 22.4767 5.39561 23.1518C5.39561 23.8278 5.88496 24.3172 6.51453 24.3172C6.84046 24.3172 7.07353 24.2011 7.21375 23.9912V24.2707H7.70311V23.1518ZM5.88496 23.1518C5.88496 22.7562 6.14125 22.4294 6.56096 22.4294C6.95746 22.4294 7.23696 22.733 7.23696 23.1518C7.23696 23.5483 6.95746 23.8742 6.56096 23.8742C6.14125 23.851 5.88496 23.5483 5.88496 23.1518Z" fill="black"/>
<path d="M9.90234 5.04639H17.2427V18.2367H9.90234V5.04639Z" fill="#FF5F00"/>
<path d="M10.3703 11.6406C10.3705 10.3716 10.6577 9.11914 11.2106 7.97692C11.7634 6.8347 12.5676 5.83237 13.5627 5.04498C12.0894 3.88176 10.2668 3.24967 8.38964 3.25098C7.28769 3.25025 6.19641 3.46675 5.1782 3.88811C4.15999 4.30947 3.23483 4.92742 2.45564 5.70661C1.67644 6.48581 1.05849 7.41097 0.637133 8.42918C0.215774 9.44739 -0.000730665 10.5387 1.85258e-06 11.6406C-0.000608576 12.7425 0.215986 13.8337 0.6374 14.8518C1.05881 15.8699 1.67678 16.7949 2.45597 17.574C3.23515 18.3531 4.16027 18.971 5.17842 19.3923C6.19656 19.8136 7.28777 20.0301 8.38964 20.0293C10.2668 20.0307 12.0894 19.3986 13.5627 18.2353C12.5657 17.4498 11.7603 16.448 11.2072 15.3055C10.6542 14.1631 10.368 12.9099 10.3703 11.6406Z" fill="#EB001B"/>
<path d="M27.138 11.6406C27.1386 12.7424 26.9221 13.8335 26.5007 14.8516C26.0794 15.8696 25.4615 16.7946 24.6824 17.5737C23.9033 18.3528 22.9783 18.9707 21.9603 19.392C20.9422 19.8134 19.8511 20.0299 18.7493 20.0293C16.8719 20.0309 15.0488 19.3988 13.5753 18.2353C14.5743 17.4516 15.3811 16.4501 15.9344 15.3073C16.4876 14.1644 16.7726 12.9103 16.7677 11.6406C16.7676 10.3716 16.4803 9.11914 15.9274 7.97692C15.3746 6.8347 14.5705 5.83237 13.5753 5.04498C15.0488 3.88156 16.8719 3.24946 18.7493 3.25098C23.3866 3.25098 27.138 7.02655 27.138 11.6406Z" fill="#F79E1B"/>
</g>
<defs>
<clipPath id="clip0">
<rect width="27.8571" height="26" fill="white"/>
</clipPath>
</defs>
</svg>
