<svg width="22" height="20" viewBox="0 0 22 20" fill="none" xmlns="http://www.w3.org/2000/svg">
<path fill-rule="evenodd" clip-rule="evenodd" d="M11.034 11.9659L10.991 11.8899L9.21002 14.9749L10.8 17.7339L10.256 18.6759H9.17002L8.12102 16.8599L6.92102 18.9429H5.83002L5.28602 17.9999L6.48602 15.9169H4.38602L3.84202 14.9749L4.38602 14.0329H7.57702L9.35802 10.9479H5.80002L4.20002 13.7059H3.11502L2.57102 12.7629L3.62002 10.9479H1.21502L0.671021 10.0059L1.21502 9.06387H3.62002L2.57102 7.24687L3.11502 6.29987H4.20002L5.80002 9.06187H9.35802L7.57702 5.97787H4.39202L3.84802 5.03587L4.39202 4.09287H6.49202L5.29202 2.00987L5.83602 1.06787H6.91902L8.11902 3.15087L9.17002 1.33487H10.258L10.8 2.27687L9.20902 5.03587L10.99 8.12087L11.034 8.04387L12.693 10.3069L11.034 11.9659Z" fill="#268AE1"/>
<path fill-rule="evenodd" clip-rule="evenodd" d="M19.562 13.075L18.584 12.813C18.3322 12.7369 18.1199 12.5658 17.992 12.3359C17.8641 12.106 17.8306 11.8353 17.8987 11.5812C17.9668 11.3271 18.131 11.1094 18.3567 10.9743C18.5824 10.8391 18.8519 10.7971 19.108 10.857L20.086 11.119C20.2182 11.1499 20.3428 11.2071 20.4525 11.2871C20.5621 11.3672 20.6545 11.4684 20.7243 11.5849C20.794 11.7014 20.8396 11.8306 20.8584 11.9651C20.8772 12.0995 20.8688 12.2364 20.8337 12.3675C20.7986 12.4986 20.7374 12.6213 20.654 12.7284C20.5705 12.8354 20.4663 12.9246 20.3477 12.9906C20.2291 13.0566 20.0984 13.098 19.9634 13.1125C19.8285 13.1271 19.692 13.1143 19.562 13.075ZM13.572 4.132C13.3127 4.0624 13.0917 3.89269 12.9574 3.66018C12.8232 3.42767 12.7867 3.15138 12.856 2.892L13.118 1.914C13.149 1.78183 13.2061 1.65722 13.2862 1.54758C13.3662 1.43794 13.4675 1.3455 13.5839 1.27576C13.7004 1.20601 13.8297 1.16039 13.9641 1.14159C14.0986 1.1228 14.2354 1.13121 14.3665 1.16634C14.4976 1.20147 14.6204 1.26259 14.7274 1.34607C14.8344 1.42956 14.9236 1.5337 14.9896 1.65232C15.0556 1.77095 15.0971 1.90162 15.1116 2.03659C15.1261 2.17156 15.1133 2.30806 15.074 2.438L14.812 3.416C14.7777 3.54447 14.7184 3.6649 14.6374 3.77043C14.5565 3.87595 14.4556 3.9645 14.3404 4.03099C14.2253 4.09749 14.0981 4.14063 13.9663 4.15796C13.8344 4.17529 13.7005 4.16648 13.572 4.132ZM18.443 16.444C18.2531 16.6338 17.9956 16.7404 17.727 16.7404C17.4585 16.7404 17.201 16.6338 17.011 16.444L16.3 15.728C16.135 15.5341 16.049 15.2852 16.0592 15.0308C16.0694 14.7763 16.175 14.5351 16.3551 14.355C16.5351 14.175 16.7764 14.0694 17.0308 14.0592C17.2852 14.049 17.5342 14.1349 17.728 14.3L18.444 15.016C18.6326 15.2058 18.7384 15.4625 18.7384 15.73C18.7384 15.9975 18.6326 16.2542 18.444 16.444H18.443ZM17.728 5.7C17.5342 5.86505 17.2852 5.95104 17.0308 5.94084C16.7764 5.93064 16.5351 5.825 16.3551 5.64495C16.175 5.4649 16.0694 5.22366 16.0592 4.96924C16.049 4.71482 16.135 4.46589 16.3 4.272L17.016 3.556C17.109 3.45746 17.2209 3.37858 17.3449 3.32403C17.4689 3.26948 17.6026 3.24037 17.7381 3.23841C17.8736 3.23645 18.0081 3.26169 18.1336 3.31263C18.2592 3.36358 18.3732 3.43919 18.469 3.535C18.5648 3.63081 18.6405 3.74486 18.6914 3.87041C18.7423 3.99597 18.7676 4.13046 18.7656 4.26594C18.7637 4.40142 18.7346 4.53512 18.68 4.65915C18.6255 4.78318 18.5466 4.895 18.448 4.988L17.728 5.7ZM20.8 7.641C20.8694 7.90038 20.8329 8.17667 20.6987 8.40918C20.5644 8.64169 20.3433 8.81139 20.084 8.881L19.106 9.143C18.8499 9.20295 18.5804 9.16089 18.3547 9.02573C18.129 8.89056 17.9648 8.6729 17.8967 8.41879C17.8286 8.16467 17.8621 7.89403 17.99 7.66414C18.1179 7.43425 18.3302 7.26313 18.582 7.187L19.56 6.925C19.8194 6.85566 20.0957 6.89212 20.3282 7.02638C20.5607 7.16063 20.7304 7.38169 20.8 7.641ZM14.81 16.584L15.072 17.562C15.1113 17.6919 15.1241 17.8284 15.1096 17.9634C15.0951 18.0984 15.0536 18.229 14.9876 18.3477C14.9216 18.4663 14.8324 18.5704 14.7254 18.6539C14.6184 18.7374 14.4956 18.7985 14.3645 18.8337C14.2334 18.8688 14.0966 18.8772 13.9621 18.8584C13.8277 18.8396 13.6984 18.794 13.5819 18.7242C13.4655 18.6545 13.3642 18.5621 13.2842 18.4524C13.2041 18.3428 13.147 18.2182 13.116 18.086L12.854 17.108C12.7845 16.8482 12.8211 16.5715 12.9557 16.3387C13.0902 16.1058 13.3118 15.936 13.5715 15.8665C13.8313 15.797 14.1081 15.8336 14.3409 15.9681C14.5737 16.1027 14.7435 16.3242 14.813 16.584H14.81ZM11.061 14.894L12.203 12.994C12.9608 12.9447 13.6716 12.6092 14.1911 12.0553C14.7107 11.5014 15.0002 10.7707 15.0009 10.0113C15.0017 9.2519 14.7137 8.52062 14.1952 7.96571C13.6768 7.4108 12.9667 7.07379 12.209 7.023L11.064 5.115C11.7877 4.96976 12.5346 4.98697 13.2509 5.1654C13.9671 5.34382 14.6348 5.67901 15.2058 6.14678C15.7767 6.61455 16.2367 7.20323 16.5526 7.87035C16.8685 8.53746 17.0323 9.26638 17.0323 10.0045C17.0323 10.7426 16.8685 11.4715 16.5526 12.1386C16.2367 12.8058 15.7767 13.3944 15.2058 13.8622C14.6348 14.33 13.9671 14.6652 13.2509 14.8436C12.5346 15.022 11.7877 15.0392 11.064 14.894H11.061Z" fill="#FF9D0A"/>
</svg>
