<svg width="36" height="36" viewBox="0 0 36 36" fill="none" xmlns="http://www.w3.org/2000/svg">
<rect width="36" height="36" rx="18" fill="#5181B8"/>
<path fill-rule="evenodd" clip-rule="evenodd" d="M25.6329 14.6094C25.7442 14.2582 25.6329 14 25.1035 14H23.3531C22.908 14 22.703 14.223 22.5917 14.4689C22.5917 14.4689 21.7015 16.5239 20.4404 17.8587C20.0325 18.2452 19.847 18.368 19.6245 18.368C19.5132 18.368 19.3522 18.2452 19.3522 17.8939V14.6094C19.3522 14.1878 19.223 14 18.8521 14H16.1014C15.8234 14 15.6561 14.1956 15.6561 14.3811C15.6561 14.7808 16.2865 14.8729 16.3515 15.9969V18.4384C16.3515 18.9737 16.2495 19.0708 16.0269 19.0708C15.4335 19.0708 13.9902 17.0065 13.134 14.6446C12.9662 14.1854 12.7979 14 12.3505 14H10.6001C10.1 14 10 14.223 10 14.4689C10 14.9081 10.5935 17.0861 12.7631 19.9665C14.2097 21.9335 16.2475 23 18.1019 23C19.2147 23 19.3522 22.7632 19.3522 22.3552V20.8684C19.3522 20.3947 19.4576 20.3002 19.8098 20.3002C20.0696 20.3002 20.5146 20.4232 21.5532 21.3716C22.74 22.4955 22.9355 23 23.6032 23H25.3536C25.8537 23 26.1038 22.7632 25.9595 22.2957C25.8017 21.8299 25.2351 21.1542 24.4831 20.3529C24.0752 19.8962 23.4631 19.4044 23.2779 19.1585C23.0182 18.8424 23.0923 18.7019 23.2779 18.421C23.2779 18.421 25.4103 15.5756 25.6329 14.6095V14.6094Z" fill="white"/>
</svg>
