<svg width="36" height="36" viewBox="0 0 36 36" fill="none" xmlns="http://www.w3.org/2000/svg">
<rect width="36" height="36" rx="18" fill="#FF0000"/>
<path fill-rule="evenodd" clip-rule="evenodd" d="M24.2602 12.3427C24.9456 12.5272 25.4859 13.0675 25.6704 13.7529C26.0131 15.0049 25.9999 17.6145 25.9999 17.6145C25.9999 17.6145 25.9999 20.2108 25.6704 21.4629C25.4859 22.1482 24.9456 22.6886 24.2602 22.8731C23.0082 23.2026 18 23.2026 18 23.2026C18 23.2026 13.0049 23.2026 11.7397 22.8599C11.0544 22.6754 10.514 22.135 10.3295 21.4497C10 20.2108 10 17.6013 10 17.6013C10 17.6013 10 15.0049 10.3295 13.7529C10.514 13.0675 11.0675 12.514 11.7397 12.3295C12.9917 12 18 12 18 12C18 12 23.0082 12 24.2602 12.3427ZM20.5701 17.6013L16.4054 20V15.2026L20.5701 17.6013Z" fill="white"/>
</svg>
