<svg viewBox="0 0 20 20" fill="none" xmlns="http://www.w3.org/2000/svg">
<path opacity="0.75" d="M18.776 6.939C19.224 6.939 19.592 7.304 19.592 7.755V18.775C19.592 18.9915 19.5061 19.1992 19.3531 19.3524C19.2001 19.5055 18.9925 19.5917 18.776 19.592H0.816001C0.708805 19.5921 0.602636 19.5711 0.503575 19.5302C0.404514 19.4892 0.314507 19.4291 0.238708 19.3533C0.162909 19.2775 0.102808 19.1875 0.0618469 19.0884C0.0208856 18.9894 -0.000130995 18.8832 6.14307e-07 18.776V4.898C6.14307e-07 4.448 0.363001 4.082 0.816001 4.082H3.266V0.816C3.266 0.367 3.633 0 4.082 0H12.245C12.461 0 12.669 0.086 12.82 0.24L16.902 4.322C17.057 4.473 17.142 4.682 17.142 4.898V6.938L18.776 6.939ZM13.06 4.09H14.362L13.06 2.788V4.09ZM4.897 4.082H6.987C7.272 4.082 7.537 4.231 7.685 4.474L9.184 6.94H15.51V5.723H12.245C12.0288 5.72221 11.8217 5.63598 11.6689 5.48313C11.516 5.33027 11.4298 5.12317 11.429 4.907V1.633H4.898L4.897 4.082ZM17.958 8.574H8.722C8.58176 8.57365 8.44395 8.53734 8.32175 8.46853C8.19954 8.39973 8.09703 8.30073 8.024 8.181L6.531 5.714H1.633V17.97H17.959L17.958 8.574Z" />
</svg>
