<svg viewBox="0 0 17 19" fill="none" xmlns="http://www.w3.org/2000/svg">
<path opacity="0.75" d="M16.0358 1.98C16.4938 1.98 16.8658 2.335 16.8658 2.77C16.8658 3.21 16.4938 3.563 16.0358 3.563H15.1658L14.3758 18.248C14.3538 18.671 13.9898 19 13.5478 19H3.59779C3.15479 19 2.79079 18.671 2.76779 18.248L1.97979 3.562H1.10979C0.651785 3.562 0.279785 3.21 0.279785 2.771C0.279785 2.335 0.651785 1.979 1.10979 1.979H5.25578V0.792C5.25578 0.356 5.62678 0 6.08478 0H11.0598C11.5178 0 11.8898 0.356 11.8898 0.792V1.979L16.0358 1.98ZM13.5058 3.563H3.63979L4.38378 17.427H12.7638L13.5058 3.563Z" fill="#728096"/>
<path opacity="0.75" d="M6.91155 15.2399C6.9914 15.2418 7.07083 15.2279 7.14531 15.199C7.21979 15.1702 7.28786 15.1269 7.34562 15.0718C7.40338 15.0166 7.44971 14.9506 7.48195 14.8775C7.5142 14.8045 7.53173 14.7258 7.53355 14.6459V6.33391C7.53173 6.25406 7.5142 6.17535 7.48195 6.10228C7.44971 6.02921 7.40338 5.9632 7.34562 5.90804C7.28786 5.85288 7.21979 5.80964 7.14531 5.78079C7.07083 5.75194 6.9914 5.73805 6.91155 5.73991C6.8317 5.73805 6.75227 5.75194 6.67779 5.78079C6.60331 5.80964 6.53525 5.85288 6.47748 5.90804C6.41972 5.9632 6.37339 6.02921 6.34115 6.10228C6.3089 6.17535 6.29137 6.25406 6.28955 6.33391V14.6459C6.28955 14.9749 6.56755 15.2399 6.91155 15.2399" fill="#728096"/>
<path opacity="0.75" d="M10.2319 15.2399C10.3117 15.2418 10.3911 15.2279 10.4656 15.199C10.5401 15.1702 10.6082 15.1269 10.6659 15.0718C10.7237 15.0166 10.77 14.9506 10.8023 14.8775C10.8345 14.8045 10.852 14.7258 10.8539 14.6459V6.33391C10.852 6.25406 10.8345 6.17535 10.8023 6.10228C10.77 6.02921 10.7237 5.9632 10.6659 5.90804C10.6082 5.85288 10.5401 5.80964 10.4656 5.78079C10.3911 5.75194 10.3117 5.73805 10.2319 5.73991C10.152 5.73805 10.0726 5.75194 9.9981 5.78079C9.92362 5.80964 9.85556 5.85288 9.7978 5.90804C9.74003 5.9632 9.69371 6.02921 9.66146 6.10228C9.62921 6.17535 9.61168 6.25406 9.60986 6.33391V14.6459C9.60986 14.9749 9.88786 15.2399 10.2319 15.2399" fill="#728096"/>
</svg>
