<svg width="16" height="20" viewBox="0 0 16 20" fill="none" xmlns="http://www.w3.org/2000/svg">
<path d="M8 0C5.87827 0 3.84344 0.84285 2.34315 2.34315C0.84285 3.84344 0 5.87827 0 8C0 13.4 7.05 19.5 7.35 19.76C7.5311 19.9149 7.7616 20.0001 8 20.0001C8.2384 20.0001 8.4689 19.9149 8.65 19.76C9 19.5 16 13.4 16 8C16 5.87827 15.1571 3.84344 13.6569 2.34315C12.1566 0.84285 10.1217 0 8 0ZM8 17.65C5.87 15.65 2 11.34 2 8C2 6.4087 2.63214 4.88258 3.75736 3.75736C4.88258 2.63214 6.4087 2 8 2C9.5913 2 11.1174 2.63214 12.2426 3.75736C13.3679 4.88258 14 6.4087 14 8C14 11.34 10.13 15.66 8 17.65ZM8 4C7.2089 4 6.4355 4.2346 5.77772 4.67412C5.11992 5.11365 4.60723 5.73836 4.30448 6.46927C4.00173 7.20017 3.92252 8.0044 4.07686 8.7804C4.2312 9.5563 4.61216 10.269 5.17157 10.8284C5.73098 11.3878 6.4437 11.7688 7.2196 11.9231C7.9956 12.0775 8.7998 11.9983 9.5307 11.6955C10.2616 11.3928 10.8864 10.8801 11.3259 10.2223C11.7654 9.5645 12 8.7911 12 8C12 6.93913 11.5786 5.92172 10.8284 5.17157C10.0783 4.42143 9.0609 4 8 4ZM8 10C7.6044 10 7.2178 9.8827 6.8889 9.6629C6.56 9.4432 6.3036 9.1308 6.1522 8.7654C6.0009 8.3999 5.96126 7.99778 6.0384 7.60982C6.1156 7.22186 6.3061 6.86549 6.5858 6.58579C6.8655 6.30608 7.2219 6.1156 7.6098 6.03843C7.9978 5.96126 8.3999 6.00087 8.7654 6.15224C9.1308 6.30362 9.4432 6.55996 9.6629 6.88886C9.8827 7.21776 10 7.60444 10 8C10 8.5304 9.7893 9.0391 9.4142 9.4142C9.0391 9.7893 8.5304 10 8 10Z" fill="#C4C4C4"/>
</svg>
