<svg viewBox="0 0 20 13" fill="none" xmlns="http://www.w3.org/2000/svg">
<path opacity="0.75" d="M19.858 0.78C19.859 0.788 19.862 0.8 19.862 0.813V12.187C19.862 12.638 19.496 13 19.046 13H1.08602C0.979003 13.0004 0.872961 12.9797 0.773977 12.939C0.674992 12.8983 0.585013 12.8385 0.509201 12.7629C0.433389 12.6874 0.373236 12.5977 0.332191 12.4988C0.291147 12.4 0.270019 12.294 0.27002 12.187V0.813C0.27002 0.8 0.27302 0.787 0.27402 0.78C0.275056 0.749877 0.277727 0.719833 0.28202 0.69C0.28602 0.667 0.29002 0.643 0.29602 0.619C0.310408 0.567447 0.328454 0.516986 0.35002 0.468C0.36102 0.442 0.37402 0.422 0.38702 0.397C0.400978 0.373516 0.41669 0.351119 0.43402 0.33L0.45402 0.298L0.48202 0.273L0.54202 0.213L0.60302 0.163C0.62302 0.147 0.64502 0.135 0.66702 0.119C0.691175 0.10567 0.715511 0.0926692 0.74002 0.08C0.761919 0.0691773 0.784661 0.0601477 0.80802 0.053C0.83502 0.045 0.86102 0.033 0.89002 0.028C0.912862 0.0207108 0.936278 0.0153585 0.96002 0.012C0.99002 0.008 1.02002 0.004 1.05002 0.004C1.06202 0.004 1.07402 0 1.08602 0H19.046C19.058 0 19.07 0.004 19.082 0.004C19.112 0.004 19.142 0.008 19.172 0.012C19.1961 0.0153452 19.2198 0.0206972 19.243 0.028C19.27 0.033 19.296 0.045 19.323 0.053C19.346 0.061 19.37 0.069 19.393 0.081L19.464 0.118C19.487 0.134 19.508 0.146 19.529 0.163L19.589 0.211C19.611 0.231 19.631 0.251 19.649 0.272C19.659 0.28 19.669 0.288 19.677 0.297L19.697 0.329C19.714 0.349 19.73 0.374 19.745 0.399C19.758 0.423 19.77 0.443 19.781 0.467C19.8037 0.515303 19.8221 0.565494 19.836 0.617L19.85 0.691C19.8543 0.720501 19.857 0.750211 19.858 0.78V0.78ZM3.37302 1.625L8.81002 6.053C9.16539 6.34073 9.60877 6.49772 10.066 6.49772C10.5233 6.49772 10.9666 6.34073 11.322 6.053L16.759 1.625H3.37302ZM18.229 11.365V2.527L12.356 7.307C11.7084 7.83182 10.8996 8.1172 10.066 8.115C9.23242 8.11737 8.42355 7.83197 7.77602 7.307L1.90302 2.527V11.365H18.229Z" fill="#728096"/>
</svg>
