<svg viewBox="0 0 26 24" fill="none" xmlns="http://www.w3.org/2000/svg">
<path d="M20.007 23.88L13.411 20.394L6.81496 23.88C6.64279 23.9708 6.44861 24.0114 6.25451 23.9972C6.06041 23.9831 5.87416 23.9148 5.71696 23.8C5.55964 23.6846 5.43756 23.5277 5.36444 23.3469C5.29131 23.166 5.27003 22.9683 5.30296 22.776L6.56296 15.393L1.22596 10.164C1.08667 10.0273 0.988197 9.85453 0.941569 9.66501C0.894941 9.4755 0.902003 9.27675 0.961963 9.09102C1.08496 8.71102 1.41096 8.43502 1.80396 8.37802L9.17796 7.30002L12.476 0.584019C12.5619 0.409347 12.695 0.262236 12.8603 0.159359C13.0255 0.0564817 13.2163 0.00195313 13.411 0.00195312C13.6056 0.00195312 13.7964 0.0564817 13.9617 0.159359C14.1269 0.262236 14.26 0.409347 14.346 0.584019L17.644 7.30002L25.019 8.37702C25.411 8.43402 25.737 8.71002 25.86 9.09002C25.982 9.46902 25.88 9.88502 25.596 10.163L20.26 15.392L21.52 22.775C21.5528 22.9674 21.5314 23.1651 21.458 23.346C21.3847 23.5269 21.2625 23.6838 21.105 23.799C20.9478 23.9138 20.7615 23.9821 20.5674 23.9962C20.3733 24.0104 20.1791 23.9698 20.007 23.879V23.88ZM13.411 18.171C13.578 18.171 13.744 18.211 13.896 18.291L19.108 21.047L18.113 15.211C18.054 14.871 18.167 14.524 18.413 14.283L22.629 10.15L16.802 9.29802C16.6344 9.27341 16.4754 9.20837 16.3386 9.10854C16.2019 9.00871 16.0915 8.87708 16.017 8.72502L13.411 3.41502L10.805 8.72502C10.653 9.03402 10.36 9.24802 10.021 9.29802L4.19296 10.15L8.40996 14.283C8.65596 14.523 8.76796 14.871 8.70996 15.211L7.71396 21.047L12.926 18.292C13.078 18.212 13.245 18.172 13.411 18.172V18.171Z" />
</svg>
