<svg width="28" height="22" viewBox="0 0 28 22" fill="none" xmlns="http://www.w3.org/2000/svg">
<path d="M4.95268 21.2707V19.8723C4.95268 19.3365 4.62768 18.9874 4.06775 18.9874C3.78825 18.9874 3.48461 19.0802 3.27475 19.3829C3.11225 19.1267 2.87918 18.9874 2.52911 18.9874C2.40182 18.9819 2.27523 19.0089 2.16121 19.0657C2.04719 19.1226 1.94948 19.2074 1.87725 19.3124V19.0338H1.38696V21.2707H1.87632V20.0357C1.87632 19.6392 2.08618 19.4526 2.41211 19.4526C2.73803 19.4526 2.90146 19.6624 2.90146 20.0357V21.2707H3.39082V20.0357C3.39082 19.6392 3.62296 19.4526 3.92661 19.4526C4.25346 19.4526 4.41596 19.6624 4.41596 20.0357V21.2707H4.95175H4.95268ZM12.2002 19.0329H11.4081V18.3578H10.9187V19.0338H10.4758V19.4767H10.9187V20.5019C10.9187 21.0145 11.1286 21.3172 11.6876 21.3172C11.9 21.3131 12.1082 21.2569 12.294 21.1537L12.1547 20.735C12.0289 20.8134 11.8831 20.8537 11.735 20.851C11.5019 20.851 11.4081 20.7117 11.4081 20.4787V19.4758H12.2002V19.0338V19.0329ZM16.349 18.9864C16.2315 18.9837 16.1153 19.0126 16.0127 19.0701C15.9102 19.1276 15.8249 19.2116 15.7659 19.3133V19.0338H15.2765V21.2707H15.7659V20.0125C15.7659 19.6392 15.9293 19.4294 16.232 19.4294C16.3249 19.4294 16.4419 19.4526 16.5347 19.4758L16.674 19.0106C16.5812 18.9874 16.4419 18.9874 16.349 18.9874V18.9864ZM10.0802 19.2195C9.84718 19.057 9.52032 18.9874 9.17025 18.9874C8.61218 18.9874 8.23889 19.2659 8.23889 19.7098C8.23889 20.0822 8.51839 20.292 9.00775 20.3617L9.24082 20.3849C9.49711 20.4313 9.63732 20.5019 9.63732 20.618C9.63732 20.7814 9.45161 20.8975 9.12475 20.8975C8.79789 20.8975 8.54161 20.7814 8.37911 20.6653L8.14603 21.0377C8.40232 21.2234 8.75146 21.3172 9.10154 21.3172C9.75339 21.3172 10.1267 21.0145 10.1267 20.5947C10.1267 20.1992 9.82396 19.9893 9.35782 19.9187L9.12475 19.8955C8.91489 19.8723 8.75146 19.8259 8.75146 19.6857C8.75146 19.5232 8.91489 19.4294 9.17118 19.4294C9.45068 19.4294 9.73018 19.5464 9.87039 19.616L10.0802 19.2195ZM23.083 18.9874C22.9658 18.9846 22.85 19.0133 22.7476 19.0705C22.6452 19.1276 22.56 19.2111 22.5008 19.3124V19.0338H22.0115V21.2707H22.5008V20.0125C22.5008 19.6392 22.6642 19.4294 22.967 19.4294C23.0598 19.4294 23.1768 19.4526 23.2697 19.4758L23.409 19.0106C23.3161 18.9874 23.1768 18.9874 23.084 18.9874H23.083ZM16.8384 20.1518C16.8384 20.8278 17.3045 21.3172 18.027 21.3172C18.352 21.3172 18.586 21.2475 18.819 21.0609L18.586 20.6644C18.4002 20.8046 18.2127 20.8742 18.0028 20.8742C17.6073 20.8742 17.3277 20.5957 17.3277 20.1518C17.3277 19.733 17.6063 19.4526 18.0028 19.4294C18.2127 19.4294 18.3993 19.4999 18.586 19.6392L18.8181 19.2437C18.586 19.057 18.3529 18.9874 18.027 18.9874C17.3045 18.9874 16.8384 19.4767 16.8384 20.1518ZM21.3587 20.1518V19.0338H20.8693V19.3124C20.7068 19.1034 20.4737 18.9874 20.1701 18.9874C19.5415 18.9874 19.0521 19.4767 19.0521 20.1518C19.0521 20.8278 19.5415 21.3172 20.1701 21.3172C20.497 21.3172 20.73 21.2011 20.8693 20.9912V21.2707H21.3587V20.1518ZM19.5647 20.1518C19.5647 19.7562 19.821 19.4294 20.2407 19.4294C20.6362 19.4294 20.9157 19.733 20.9157 20.1518C20.9157 20.5483 20.6372 20.8742 20.2407 20.8742C19.821 20.851 19.5647 20.5483 19.5647 20.1518ZM13.7147 18.9874C13.0628 18.9874 12.5967 19.4526 12.5967 20.1518C12.5967 20.851 13.0628 21.3172 13.7388 21.3172C14.0647 21.3172 14.3907 21.2243 14.6479 21.0145L14.4148 20.6644C14.2275 20.8095 13.9989 20.8911 13.762 20.8975C13.4593 20.8975 13.1557 20.7582 13.086 20.3617H14.7407V20.176C14.764 19.4526 14.3442 18.9874 13.7156 18.9874H13.7147ZM13.7147 19.4062C14.0183 19.4062 14.2282 19.5928 14.2746 19.9419H13.1092C13.1557 19.6392 13.3655 19.4062 13.7156 19.4062H13.7147ZM25.8567 20.1518V18.1479H25.3673V19.3133C25.2039 19.1034 24.9708 18.9874 24.6681 18.9874C24.0385 18.9874 23.5492 19.4767 23.5492 20.1518C23.5492 20.8278 24.0385 21.3172 24.6681 21.3172C24.994 21.3172 25.2271 21.2011 25.3673 20.9912V21.2707H25.8567V20.1518ZM24.0627 20.1518C24.0627 19.7562 24.319 19.4294 24.7378 19.4294C25.1343 19.4294 25.4137 19.733 25.4137 20.1518C25.4137 20.5483 25.1343 20.8742 24.7378 20.8742C24.319 20.851 24.0627 20.5483 24.0627 20.1518ZM7.70311 20.1518V19.0338H7.21375V19.3124C7.05032 19.1034 6.81725 18.9874 6.51453 18.9874C5.88496 18.9874 5.39561 19.4767 5.39561 20.1518C5.39561 20.8278 5.88496 21.3172 6.51453 21.3172C6.84046 21.3172 7.07353 21.2011 7.21375 20.9912V21.2707H7.70311V20.1518ZM5.88496 20.1518C5.88496 19.7562 6.14125 19.4294 6.56096 19.4294C6.95746 19.4294 7.23696 19.733 7.23696 20.1518C7.23696 20.5483 6.95746 20.8742 6.56096 20.8742C6.14125 20.851 5.88496 20.5483 5.88496 20.1518Z" fill="black"/>
<path d="M9.90234 2.04639H17.2427V15.2367H9.90234V2.04639Z" fill="#FF5F00"/>
<path d="M10.3703 8.6406C10.3705 7.3716 10.6577 6.11914 11.2106 4.97692C11.7634 3.8347 12.5676 2.83237 13.5627 2.04498C12.0894 0.881759 10.2668 0.249669 8.38964 0.250979C7.28769 0.250249 6.19641 0.466749 5.1782 0.888109C4.15999 1.30947 3.23483 1.92742 2.45564 2.70661C1.67644 3.48581 1.05849 4.41097 0.637133 5.42918C0.215774 6.44739 -0.000730665 7.5387 1.85258e-06 8.6406C-0.000608576 9.7425 0.215986 10.8337 0.6374 11.8518C1.05881 12.8699 1.67678 13.7949 2.45597 14.574C3.23515 15.3531 4.16027 15.971 5.17842 16.3923C6.19656 16.8136 7.28777 17.0301 8.38964 17.0293C10.2668 17.0307 12.0894 16.3986 13.5627 15.2353C12.5657 14.4498 11.7603 13.448 11.2072 12.3055C10.6542 11.1631 10.368 9.9099 10.3703 8.6406Z" fill="#EB001B"/>
<path d="M27.138 8.6406C27.1386 9.7424 26.9221 10.8335 26.5007 11.8516C26.0794 12.8696 25.4615 13.7946 24.6824 14.5737C23.9033 15.3528 22.9783 15.9707 21.9603 16.392C20.9422 16.8134 19.8511 17.0299 18.7493 17.0293C16.8719 17.0309 15.0488 16.3988 13.5753 15.2353C14.5743 14.4516 15.3811 13.4501 15.9344 12.3073C16.4876 11.1644 16.7726 9.9103 16.7677 8.6406C16.7676 7.3716 16.4803 6.11914 15.9274 4.97692C15.3746 3.8347 14.5705 2.83237 13.5753 2.04498C15.0488 0.881559 16.8719 0.249459 18.7493 0.250979C23.3866 0.250979 27.138 4.02655 27.138 8.6406Z" fill="#F79E1B"/>
</svg>
