<svg viewBox="0 0 20 18" fill="none" xmlns="http://www.w3.org/2000/svg">
<path opacity="0.75" d="M19.046 4.09406C19.2625 4.09511 19.4697 4.1817 19.6226 4.33493C19.7754 4.48816 19.8615 4.69562 19.862 4.91206V11.8671C19.8615 12.0835 19.7754 12.291 19.6226 12.4442C19.4697 12.5974 19.2625 12.684 19.046 12.6851H15.984V17.1851C15.984 17.5251 15.71 17.7991 15.372 17.7991H4.76002C4.67952 17.7989 4.59983 17.7829 4.52551 17.752C4.45119 17.7211 4.38369 17.6758 4.32686 17.6188C4.27003 17.5618 4.22498 17.4941 4.1943 17.4197C4.16361 17.3453 4.14789 17.2656 4.14802 17.1851V12.6851H1.08602C0.869582 12.684 0.662339 12.5974 0.50948 12.4442C0.356621 12.291 0.270545 12.0835 0.27002 11.8671V4.91206C0.270545 4.69562 0.356621 4.48816 0.50948 4.33493C0.662339 4.1817 0.869582 4.09511 1.08602 4.09406H4.14802V0.924059C4.14802 0.584059 4.42202 0.310059 4.76002 0.310059H15.372C15.71 0.310059 15.984 0.585059 15.984 0.924059V4.09406H19.046ZM5.37202 4.08406H14.76V1.53706H5.37202V4.08406ZM5.37202 16.5711H14.76V9.17406H5.37202V16.5711ZM18.229 5.73106H1.90302V11.0491H4.14802V8.56006C4.14802 8.22106 4.42202 7.94706 4.76002 7.94706H15.372C15.71 7.94706 15.984 8.22106 15.984 8.56006V11.0491H18.229V5.73106Z" fill="#728096"/>
<path opacity="0.75" d="M12.3098 12.237H7.41184C7.24913 12.237 7.09308 12.1724 6.97803 12.0573C6.86298 11.9423 6.79834 11.7862 6.79834 11.6235C6.79834 11.4608 6.86298 11.3048 6.97803 11.1897C7.09308 11.0746 7.24913 11.01 7.41184 11.01H12.3098C12.4726 11.01 12.6286 11.0746 12.7436 11.1897C12.8587 11.3048 12.9233 11.4608 12.9233 11.6235C12.9233 11.7862 12.8587 11.9423 12.7436 12.0573C12.6286 12.1724 12.4726 12.237 12.3098 12.237" fill="#728096"/>
<path opacity="0.75" d="M11.0858 14.697H7.41184C7.24913 14.697 7.09308 14.6323 6.97803 14.5173C6.86298 14.4022 6.79834 14.2462 6.79834 14.0835C6.79834 13.9208 6.86298 13.7647 6.97803 13.6497C7.09308 13.5346 7.24913 13.47 7.41184 13.47H11.0858C11.2486 13.47 11.4046 13.5346 11.5196 13.6497C11.6347 13.7647 11.6993 13.9208 11.6993 14.0835C11.6993 14.2462 11.6347 14.4022 11.5196 14.5173C11.4046 14.6323 11.2486 14.697 11.0858 14.697Z" fill="#728096"/>
</svg>
