<svg width="19" height="19" viewBox="0 0 19 19" fill="none" xmlns="http://www.w3.org/2000/svg">
<path d="M18.0992 16.7591L14.1764 12.8591C15.3759 11.3628 15.9567 9.4635 15.7995 7.55183C15.6424 5.64017 14.7592 3.8614 13.3315 2.58128C11.9039 1.30117 10.0403 0.617006 8.12398 0.669473C6.20766 0.72194 4.38426 1.50705 3.02871 2.86337C1.67316 4.21968 0.888497 6.04411 0.836059 7.96152C0.783622 9.87892 1.4674 11.7436 2.74679 13.172C4.02618 14.6005 5.80394 15.4842 7.71452 15.6414C9.62511 15.7987 11.5233 15.2175 13.0188 14.0174L16.9166 17.9174C16.994 17.9955 17.0861 18.0575 17.1876 18.0998C17.2891 18.1421 17.3979 18.1639 17.5079 18.1639C17.6178 18.1639 17.7267 18.1421 17.8282 18.0998C17.9297 18.0575 18.0218 17.9955 18.0992 17.9174C18.2493 17.762 18.3333 17.5544 18.3333 17.3382C18.3333 17.1221 18.2493 16.9145 18.0992 16.7591ZM8.34642 14.0174C7.19334 14.0174 6.06617 13.6753 5.10742 13.0343C4.14868 12.3933 3.40143 11.4823 2.96017 10.4164C2.51891 9.3505 2.40345 8.17761 2.62841 7.04605C2.85336 5.9145 3.40862 4.8751 4.22396 4.05929C5.0393 3.24349 6.07812 2.68791 7.20903 2.46283C8.33995 2.23775 9.51217 2.35327 10.5775 2.79478C11.6428 3.23629 12.5533 3.98397 13.1939 4.94325C13.8345 5.90254 14.1764 7.03036 14.1764 8.18408C14.1764 9.73118 13.5622 11.2149 12.4689 12.3089C11.3755 13.4028 9.89264 14.0174 8.34642 14.0174Z" fill="#268AE1"/>
</svg>
