<svg viewBox="0 0 20 16" fill="none" xmlns="http://www.w3.org/2000/svg">
<path opacity="0.75" d="M0.822037 15.5441C0.660204 15.4891 0.519795 15.3845 0.420718 15.2452C0.32164 15.1059 0.268922 14.939 0.270037 14.7681C0.270037 9.11507 4.84804 4.51207 10.474 4.51207V0.820074C10.4729 0.662041 10.5177 0.507075 10.603 0.374046C10.6883 0.241016 10.8105 0.135661 10.9546 0.0708079C11.0987 0.00595492 11.2585 -0.0155981 11.4147 0.00877301C11.5708 0.0331441 11.7165 0.102388 11.834 0.208074L19.59 7.18307C19.676 7.25999 19.7447 7.35416 19.7918 7.45944C19.8388 7.56472 19.8632 7.67875 19.8632 7.79407C19.8632 7.9094 19.8388 8.02342 19.7918 8.12871C19.7447 8.23399 19.676 8.32816 19.59 8.40507L11.834 15.3801C11.7173 15.4862 11.5722 15.5559 11.4164 15.5808C11.2606 15.6057 11.101 15.5846 10.957 15.5201C10.8125 15.4548 10.69 15.349 10.6042 15.2156C10.5185 15.0821 10.4733 14.9267 10.474 14.7681V11.0881C6.60804 11.2321 3.81604 12.5731 1.73104 15.2731C1.62694 15.408 1.48301 15.5066 1.31966 15.5551C1.15632 15.6036 0.981854 15.5994 0.821037 15.5431L0.822037 15.5441ZM11.186 9.42807H11.294C11.5103 9.42992 11.7171 9.51713 11.8693 9.67071C12.0216 9.82429 12.107 10.0318 12.107 10.2481V12.9251L17.821 7.78907L12.107 2.65807V5.33007C12.107 5.78507 11.741 6.15007 11.29 6.15007H10.474C6.57704 6.15007 3.27904 8.77707 2.24204 12.3591C4.55204 10.3921 7.50304 9.42907 11.186 9.42907V9.42807Z" fill="#728096"/>
</svg>
