<svg viewBox="0 0 20 10" fill="none" xmlns="http://www.w3.org/2000/svg">
<path d="M8.32508 8.333C8.54614 8.333 8.75814 8.42081 8.91445 8.57713C9.07076 8.73344 9.15858 8.94544 9.15858 9.1665C9.15858 9.38756 9.07076 9.59956 8.91445 9.75587C8.75814 9.91219 8.54614 10 8.32508 10H5.82708C5.17065 9.99987 4.52067 9.87043 3.91427 9.61907C3.30787 9.36772 2.75693 8.99936 2.2929 8.53506C1.82887 8.07075 1.46085 7.51959 1.20986 6.91303C0.958866 6.30648 0.829816 5.65643 0.830079 5C0.830079 2.239 3.06708 0 5.82708 0H8.32508C8.54614 3.29402e-09 8.75814 0.0878149 8.91445 0.244126C9.07076 0.400438 9.15858 0.612442 9.15858 0.8335C9.15858 1.05456 9.07076 1.26656 8.91445 1.42287C8.75814 1.57919 8.54614 1.667 8.32508 1.667H5.82708C5.38951 1.66713 4.95626 1.75345 4.55205 1.92102C4.14785 2.08859 3.7806 2.33413 3.47129 2.64363C3.16198 2.95312 2.91666 3.32052 2.74933 3.72482C2.582 4.12913 2.49595 4.56244 2.49608 5C2.49581 5.88353 2.84647 6.73099 3.47094 7.35602C4.09541 7.98105 4.94255 8.33247 5.82608 8.333H8.32508ZM6.66508 5.823C6.55608 5.82326 6.4481 5.80205 6.3473 5.76059C6.2465 5.71912 6.15485 5.6582 6.07759 5.58131C6.00033 5.50443 5.93898 5.41308 5.89702 5.31248C5.85507 5.21188 5.83334 5.104 5.83308 4.995C5.83334 4.88592 5.8551 4.77796 5.89712 4.67729C5.93914 4.57663 6.00058 4.48523 6.07795 4.40833C6.15531 4.33143 6.24708 4.27054 6.34799 4.22913C6.44891 4.18772 6.557 4.16661 6.66608 4.167H13.3281C13.7881 4.167 14.1611 4.537 14.1611 4.995C14.1608 5.10408 14.1391 5.21204 14.097 5.31271C14.055 5.41337 13.9936 5.50477 13.9162 5.58167C13.8388 5.65857 13.7471 5.71946 13.6462 5.76087C13.5452 5.80228 13.4372 5.82339 13.3281 5.823H6.66508ZM11.6681 1.667C11.447 1.667 11.235 1.57919 11.0787 1.42287C10.9224 1.26656 10.8346 1.05456 10.8346 0.8335C10.8346 0.612442 10.9224 0.400438 11.0787 0.244126C11.235 0.0878149 11.447 4.65845e-09 11.6681 0H14.1671C14.8234 0.000262591 15.4733 0.1298 16.0796 0.381215C16.6859 0.632631 17.2367 1.001 17.7006 1.46529C18.1645 1.92959 18.5325 2.48071 18.7834 3.0872C19.0343 3.69368 19.1633 4.34365 19.1631 5C19.1631 7.761 16.9261 10 14.1671 10H11.6681C11.447 10 11.235 9.91219 11.0787 9.75587C10.9224 9.59956 10.8346 9.38756 10.8346 9.1665C10.8346 8.94544 10.9224 8.73344 11.0787 8.57713C11.235 8.42081 11.447 8.333 11.6681 8.333H14.1671C15.0506 8.33247 15.8978 7.98105 16.5222 7.35602C17.1467 6.73099 17.4973 5.88353 17.4971 5C17.4973 4.11647 17.1467 3.26901 16.5222 2.64398C15.8978 2.01895 15.0506 1.66753 14.1671 1.667H11.6681Z" fill="#051033"/>
</svg>
