<svg width="19" height="24" viewBox="0 0 19 24" fill="none" xmlns="http://www.w3.org/2000/svg">
<path d="M0.298706 11.4102C0.298706 10.1178 0.414091 9.29908 3.22947 7.30246C5.56024 5.64923 13.0344 0 13.0344 0V9.43015H18.7187V23.0031H2.07471C1.09809 23.0031 0.298706 22.2434 0.298706 21.3157V11.4111" fill="#F9C637"/>
<path d="M13.0417 9.42871V14.8933L2.59705 21.653L15.8035 17.573V9.42871H13.0417Z" fill="#C8A332"/>
<path d="M8.26594 9.14866C8.87702 8.45635 9.76871 8.21266 10.2598 8.60312C10.749 8.9945 10.6512 9.87143 10.0401 10.5619C9.42809 11.2533 8.53732 11.497 8.04717 11.1065C7.55794 10.7151 7.65486 9.84004 8.26594 9.14866Z" fill="#000106"/>
</svg>
