<svg width="9" height="8" viewBox="0 0 9 8" fill="none" xmlns="http://www.w3.org/2000/svg">
<path fill-rule="evenodd" clip-rule="evenodd" d="M3.04212e-07 3.98514C-0.000100166 4.11049 0.0246866 4.23461 0.072923 4.35031C0.121159 4.46601 0.191886 4.57098 0.281 4.65914L3.081 7.40714L8.588 1.64214C8.68047 1.5552 8.75459 1.45061 8.80596 1.33455C8.85734 1.21849 8.88494 1.09332 8.88713 0.966412C8.88933 0.839508 8.86607 0.713451 8.81873 0.595686C8.77139 0.477921 8.70094 0.370836 8.61152 0.280754C8.52211 0.190672 8.41555 0.119421 8.29814 0.0712084C8.18073 0.0229954 8.05485 -0.00120181 7.92794 4.59084e-05C7.80102 0.00129362 7.67564 0.0279608 7.5592 0.0784727C7.44276 0.128985 7.33763 0.202317 7.25 0.294139L3.076 4.72914L1.618 3.31114C1.48481 3.17943 1.31566 3.09003 1.13181 3.05418C0.947953 3.01833 0.757605 3.03764 0.584692 3.10966C0.411779 3.18169 0.264018 3.30323 0.159985 3.459C0.055953 3.61477 0.000292302 3.79782 3.04212e-07 3.98514Z" fill="white"/>
</svg>
