<svg width="20" height="20" viewBox="0 0 20 20" fill="none" xmlns="http://www.w3.org/2000/svg">
<path d="M17.3668 3.84172C16.9411 3.41589 16.4358 3.0781 15.8796 2.84763C15.3233 2.61716 14.7272 2.49854 14.1251 2.49854C13.523 2.49854 12.9269 2.61716 12.3706 2.84763C11.8144 3.0781 11.3091 3.41589 10.8834 3.84172L10.0001 4.72506L9.11672 3.84172C8.25698 2.98198 7.09092 2.49898 5.87506 2.49898C4.6592 2.49898 3.49313 2.98198 2.63339 3.84172C1.77365 4.70147 1.29065 5.86753 1.29065 7.08339C1.29065 8.29925 1.77365 9.46531 2.63339 10.3251L3.51672 11.2084L10.0001 17.6917L16.4834 11.2084L17.3668 10.3251C17.7926 9.89943 18.1304 9.39406 18.3609 8.83784C18.5913 8.28163 18.71 7.68546 18.71 7.08339C18.71 6.48132 18.5913 5.88514 18.3609 5.32893C18.1304 4.77271 17.7926 4.26735 17.3668 3.84172Z" stroke="#268AE1" stroke-width="2" stroke-linecap="round" stroke-linejoin="round"/>
</svg>
