<svg width="20" height="20" viewBox="0 0 20 20" fill="none" xmlns="http://www.w3.org/2000/svg">
<path fill-rule="evenodd" clip-rule="evenodd" d="M8.706 5.1699C9.66121 4.91406 10.6708 4.94721 11.6072 5.26515C12.5436 5.5831 13.3646 6.17157 13.9666 6.95614C14.5685 7.74071 14.9243 8.68615 14.9889 9.67292C15.0535 10.6597 14.8241 11.6435 14.3296 12.4998C13.8351 13.3562 13.0978 14.0467 12.2109 14.4841C11.324 14.9214 10.3274 15.086 9.34694 14.9569C8.36652 14.8278 7.44639 14.4109 6.7029 13.7589C5.95942 13.1069 5.42596 12.2491 5.17 11.2939C5.00002 10.6596 4.95665 9.99806 5.04237 9.34701C5.12808 8.69597 5.3412 8.06818 5.66955 7.4995C5.99791 6.93082 6.43507 6.4324 6.95606 6.03268C7.47706 5.63297 8.07169 5.33979 8.706 5.1699ZM9.224 7.0999C9.79707 6.94702 10.4026 6.96744 10.9641 7.15859C11.5256 7.34974 12.0178 7.70303 12.3785 8.17382C12.7393 8.64461 12.9524 9.21177 12.9909 9.80364C13.0295 10.3955 12.8917 10.9855 12.595 11.4991C12.2983 12.0127 11.8561 12.4268 11.3241 12.6892C10.7922 12.9515 10.1944 13.0502 9.60633 12.973C9.01827 12.8957 8.46632 12.6458 8.02021 12.2549C7.57411 11.864 7.25388 11.3497 7.1 10.7769C6.99766 10.396 6.97145 9.99865 7.02284 9.60761C7.07423 9.21656 7.20224 8.83948 7.39952 8.49796C7.5968 8.15643 7.85948 7.85716 8.17255 7.61726C8.48562 7.37737 8.84291 7.20156 9.224 7.0999ZM7.641 1.1999C7.90037 1.13056 8.17667 1.16702 8.40918 1.30127C8.64169 1.43553 8.81139 1.65659 8.881 1.9159L9.143 2.8939C9.20294 3.15006 9.16089 3.41949 9.02572 3.64519C8.89056 3.87089 8.6729 4.03515 8.41878 4.10323C8.16466 4.17131 7.89403 4.13785 7.66414 4.00995C7.43425 3.88204 7.26313 3.66972 7.187 3.4179L6.925 2.4399C6.85565 2.18052 6.89211 1.90423 7.02637 1.67172C7.16062 1.43921 7.38169 1.26951 7.641 1.1999ZM11.572 15.8709C11.7004 15.8364 11.8344 15.8276 11.9662 15.8449C12.0981 15.8623 12.2252 15.9054 12.3404 15.9719C12.4555 16.0384 12.5565 16.1269 12.6374 16.2325C12.7183 16.338 12.7776 16.4584 12.812 16.5869L13.074 17.5649C13.1339 17.8211 13.0919 18.0905 12.9567 18.3162C12.8216 18.5419 12.6039 18.7062 12.3498 18.7742C12.0957 18.8423 11.825 18.8089 11.5951 18.681C11.3652 18.553 11.1941 18.3407 11.118 18.0889L10.856 17.1109C10.8212 16.9823 10.8121 16.848 10.8293 16.7159C10.8465 16.5838 10.8896 16.4563 10.9561 16.3408C11.0226 16.2254 11.1112 16.1242 11.2169 16.043C11.3226 15.9619 11.4433 15.9023 11.572 15.8679V15.8709ZM1.913 11.1209L2.891 10.8589C3.14715 10.799 3.41658 10.841 3.64228 10.9762C3.86798 11.1113 4.03225 11.329 4.10033 11.5831C4.1684 11.8372 4.13495 12.1079 4.00704 12.3378C3.87914 12.5676 3.66682 12.7388 3.415 12.8149L2.437 13.0769C2.17735 13.1463 1.90079 13.1096 1.66815 12.9751C1.43551 12.8405 1.26585 12.619 1.1965 12.3594C1.12714 12.0998 1.16377 11.8232 1.29833 11.5906C1.43289 11.3579 1.65435 11.1883 1.914 11.1189L1.913 11.1209ZM16.584 7.1899L17.562 6.9279C17.6919 6.88861 17.8284 6.87585 17.9634 6.89035C18.0984 6.90486 18.229 6.94634 18.3477 7.01234C18.4663 7.07833 18.5704 7.1675 18.6539 7.27454C18.7374 7.38157 18.7985 7.5043 18.8337 7.63542C18.8688 7.76654 18.8772 7.90338 18.8584 8.03782C18.8396 8.17226 18.794 8.30155 18.7242 8.418C18.6545 8.53446 18.5621 8.63572 18.4524 8.71575C18.3428 8.79578 18.2182 8.85297 18.086 8.8839L17.108 9.1459C16.8483 9.21539 16.5717 9.17888 16.339 9.04442C16.1063 8.90996 15.9365 8.68855 15.867 8.4289C15.7975 8.16925 15.834 7.89264 15.9685 7.6599C16.1029 7.42717 16.3243 7.25739 16.584 7.1879V7.1899ZM3.556 3.5559C3.74595 3.36611 4.00348 3.2595 4.272 3.2595C4.54051 3.2595 4.79805 3.36611 4.988 3.5559L5.7 4.2719C5.86505 4.46578 5.95104 4.71472 5.94084 4.96914C5.93064 5.22356 5.825 5.46481 5.64495 5.64485C5.4649 5.8249 5.22365 5.93054 4.96923 5.94074C4.71481 5.95094 4.46588 5.86496 4.272 5.6999L3.556 4.9839C3.36742 4.79411 3.26159 4.53744 3.26159 4.2699C3.26159 4.00236 3.36742 3.74568 3.556 3.5559ZM14.3 14.2999C14.394 14.2058 14.5056 14.1312 14.6285 14.0802C14.7513 14.0293 14.883 14.0031 15.016 14.0031C15.149 14.0031 15.2807 14.0293 15.4035 14.0802C15.5264 14.1312 15.638 14.2058 15.732 14.2999L16.448 15.0159C16.6289 15.2076 16.728 15.4623 16.7242 15.7258C16.7204 15.9894 16.614 16.2411 16.4276 16.4275C16.2412 16.6139 15.9895 16.7203 15.7259 16.7241C15.4624 16.7279 15.2077 16.6288 15.016 16.4479L14.3 15.7279C14.1112 15.5382 14.0052 15.2815 14.0052 15.0139C14.0052 14.7463 14.1112 14.4896 14.3 14.2999ZM3.56 15.0159L4.272 14.2999C4.46588 14.1348 4.71481 14.0489 4.96923 14.0591C5.22365 14.0693 5.4649 14.1749 5.64495 14.3549C5.825 14.535 5.93064 14.7762 5.94084 15.0307C5.95104 15.2851 5.86505 15.534 5.7 15.7279L4.984 16.4439C4.79059 16.6148 4.53924 16.7055 4.28125 16.6973C4.02327 16.6892 3.77812 16.5829 3.59587 16.4001C3.41361 16.2174 3.30799 15.9719 3.30058 15.7139C3.29317 15.4559 3.38453 15.2048 3.556 15.0119L3.56 15.0159ZM14.3 4.2719L15.016 3.5559C15.109 3.45736 15.2208 3.37848 15.3448 3.32393C15.4689 3.26938 15.6026 3.24026 15.7381 3.23831C15.8735 3.23635 16.008 3.26159 16.1336 3.31253C16.2591 3.36348 16.3732 3.43909 16.469 3.5349C16.5648 3.63071 16.6404 3.74476 16.6914 3.87031C16.7423 3.99587 16.7675 4.13036 16.7656 4.26584C16.7636 4.40132 16.7345 4.53503 16.68 4.65905C16.6254 4.78308 16.5465 4.8949 16.448 4.9879L15.732 5.7039C15.639 5.80244 15.5272 5.88132 15.4031 5.93587C15.2791 5.99042 15.1454 6.01954 15.0099 6.02149C14.8745 6.02345 14.74 5.99821 14.6144 5.94727C14.4889 5.89632 14.3748 5.82071 14.279 5.7249C14.1832 5.62909 14.1076 5.51504 14.0566 5.38949C14.0057 5.26393 13.9804 5.12944 13.9824 4.99396C13.9844 4.85848 14.0135 4.72477 14.068 4.60075C14.1226 4.47672 14.2015 4.3649 14.3 4.2719ZM1.2 7.6409C1.2696 7.38159 1.4393 7.16053 1.67181 7.02627C1.90432 6.89202 2.18062 6.85555 2.44 6.9249L3.418 7.1869C3.66982 7.26304 3.88214 7.43415 4.01004 7.66404C4.13795 7.89393 4.1714 8.16457 4.10333 8.41868C4.03525 8.6728 3.87098 8.89047 3.64528 9.02563C3.41958 9.16079 3.15015 9.20285 2.894 9.1429L1.916 8.8809C1.65669 8.81129 1.43562 8.64159 1.30137 8.40908C1.16711 8.17657 1.13065 7.90028 1.2 7.6409ZM15.871 11.5719C15.9406 11.3126 16.1103 11.0915 16.3428 10.9573C16.5753 10.823 16.8516 10.7866 17.111 10.8559L18.089 11.1179C18.2212 11.1488 18.3458 11.206 18.4554 11.286C18.5651 11.3661 18.6575 11.4673 18.7272 11.5838C18.797 11.7003 18.8426 11.8295 18.8614 11.964C18.8802 12.0984 18.8718 12.2353 18.8367 12.3664C18.8015 12.4975 18.7404 12.6202 18.6569 12.7273C18.5734 12.8343 18.4693 12.9235 18.3507 12.9895C18.232 13.0555 18.1014 13.0969 17.9664 13.1114C17.8314 13.126 17.6949 13.1132 17.565 13.0739L16.587 12.8119C16.4583 12.7779 16.3375 12.7188 16.2316 12.638C16.1258 12.5572 16.0369 12.4563 15.9701 12.3411C15.9033 12.2259 15.8599 12.0987 15.8424 11.9667C15.8249 11.8347 15.8336 11.7005 15.868 11.5719H15.871ZM6.928 17.5619L7.19 16.5839C7.26613 16.3321 7.43725 16.1198 7.66714 15.9919C7.89703 15.8639 8.16766 15.8305 8.42178 15.8986C8.6759 15.9666 8.89356 16.1309 9.02873 16.3566C9.16389 16.5823 9.20594 16.8517 9.146 17.1079L8.884 18.0859C8.84959 18.2145 8.79018 18.3351 8.70917 18.4408C8.62816 18.5465 8.52713 18.6351 8.41184 18.7018C8.29656 18.7684 8.16928 18.8117 8.03728 18.8291C7.90527 18.8465 7.77113 18.8378 7.6425 18.8034C7.51387 18.769 7.39327 18.7096 7.2876 18.6286C7.18193 18.5476 7.09325 18.4465 7.02662 18.3312C6.96 18.216 6.91673 18.0887 6.89929 17.9567C6.88186 17.8247 6.89059 17.6905 6.925 17.5619H6.928ZM10.859 2.8909L11.121 1.9129C11.1971 1.66108 11.3682 1.44876 11.5981 1.32085C11.828 1.19295 12.0987 1.15949 12.3528 1.22757C12.6069 1.29564 12.8246 1.45991 12.9597 1.68561C13.0949 1.91131 13.1369 2.18074 13.077 2.4369L12.815 3.4149C12.7456 3.67468 12.5759 3.89627 12.3432 4.03092C12.1105 4.16557 11.8338 4.20225 11.574 4.1329C11.3142 4.06355 11.0926 3.89384 10.958 3.6611C10.8233 3.42837 10.7866 3.15168 10.856 2.8919L10.859 2.8909Z" fill="#FF9D0A"/>
</svg>
