<svg width="22" height="20" viewBox="0 0 22 20" fill="none" xmlns="http://www.w3.org/2000/svg">
<path fill-rule="evenodd" clip-rule="evenodd" d="M21.31 10.0049L20.766 9.06287H18.361L19.41 7.24687L18.866 6.29987H17.778L16.185 9.06287H12.623L14.4 5.97787H17.585L18.129 5.03587L17.585 4.09387H15.485L16.685 2.01087L16.141 1.06887H15.062L13.862 3.15187L12.811 1.33487H11.723L11.179 2.27787L12.771 5.03687L10.99 8.12087L9.20899 5.03587L10.8 2.27687L10.258 1.33487H9.16999L8.12099 3.15087L6.92099 1.06787H5.83099L5.28599 2.00987L6.48599 4.09287H4.38599L3.84199 5.03587L4.39199 5.97787H7.57699L9.35799 9.06287H5.79999L4.19999 6.29987H3.11499L2.57099 7.24187L3.61999 9.06287H1.21499L0.67099 10.0049L1.21499 10.9469H3.61999L2.57099 12.7639L3.11499 13.7069H4.19999L5.79999 10.9479H9.35799L7.57699 14.0319H4.39199L3.84799 14.9739L4.39199 15.9159H6.49199L5.28599 17.9999L5.82999 18.9429H6.91899L8.11899 16.8599L9.16999 18.6759H10.258L10.8 17.7339L9.20999 14.9749L10.991 11.8899L12.772 14.9749L11.18 17.7339L11.724 18.6769H12.812L13.86 16.8599L15.06 18.9429H16.148L16.695 17.9999L15.495 15.9169H17.595L18.139 14.9749L17.595 14.0319H14.4L12.619 10.9469H16.181L17.773 13.7059H18.861L19.405 12.7639L18.357 10.9479H20.762L21.31 10.0049Z" fill="#268AE1"/>
</svg>
