<svg width="45" height="15" viewBox="0 0 45 15" fill="none" xmlns="http://www.w3.org/2000/svg">
<path fill-rule="evenodd" clip-rule="evenodd" d="M29.4722 0.175293C29.9276 0.376833 30.4305 0.325479 30.9043 0.442722C31.3869 0.561902 32.0089 0.539616 32.3025 0.873902C32.6126 1.22854 32.2444 1.80021 32.1901 2.27887C32.1436 2.69358 32.0322 3.10247 31.9944 3.51912C31.9653 3.84565 31.8539 3.82143 31.6049 3.72066C30.5294 3.28463 29.4131 3.10635 28.2553 3.27107C28.2388 3.27398 28.2223 3.27398 28.2068 3.27591C27.4578 3.3825 26.9414 3.73132 26.8697 4.20223C26.765 4.88436 27.2689 5.18086 27.732 5.4667C28.4142 5.88916 29.1351 6.2496 29.8162 6.67497C30.7367 7.24859 31.509 7.96367 31.7919 9.07214C32.1969 10.6602 31.5584 12.3278 30.1457 13.3636C28.982 14.2163 27.6487 14.5845 26.234 14.7172C26.1197 14.7269 25.9695 14.6494 25.8968 14.8151H25.3174C24.7612 14.6067 24.1634 14.6668 23.5927 14.538C23.0278 14.412 22.4668 14.2773 21.9242 14.0748C21.7478 14.0099 21.5967 13.9546 21.6403 13.7095C21.8089 12.7628 21.9687 11.8133 22.1344 10.8443C23.4476 11.612 24.9792 11.9199 26.4869 11.7193C26.89 11.6689 27.2756 11.5623 27.6157 11.3317C28.1923 10.9441 28.2911 10.2814 27.8531 9.74168C27.5518 9.37057 27.1429 9.13997 26.735 8.91226C26.0897 8.55085 25.4308 8.2185 24.8077 7.81542C22.1654 6.10523 22.9794 2.93678 24.5733 1.71591C25.7418 0.82061 27.0828 0.450473 28.5052 0.279939C28.636 0.263467 28.8017 0.348734 28.8928 0.175293H29.4722Z" fill="#1457B0"/>
<path fill-rule="evenodd" clip-rule="evenodd" d="M3.94845 2.47817C2.72079 1.72046 1.43694 1.10033 0 0.853253V0.56257C1.9437 0.56257 3.8874 0.559663 5.83111 0.563539C6.94539 0.565477 7.488 1.00925 7.70407 2.09641C8.02867 3.72133 8.34842 5.34818 8.6672 6.97407C8.69821 7.13104 8.74084 7.28995 8.68561 7.45079C8.50733 7.36455 8.48214 7.1727 8.39978 7.02349C7.33684 5.09238 5.86889 3.56242 3.94845 2.47914" fill="#F4B103"/>
<path fill-rule="evenodd" clip-rule="evenodd" d="M3.96069 2.4794C5.88114 3.56365 7.34909 5.09362 8.41202 7.02375C8.49438 7.17394 8.51861 7.36579 8.69786 7.45202L9.23853 10.1021C9.63289 9.01493 9.9885 8.03533 10.3422 7.05476C11.0786 5.00932 11.8208 2.96581 12.5436 0.914559C12.6502 0.613217 12.7742 0.48241 13.1162 0.49113C14.1298 0.518261 15.1442 0.508571 16.1587 0.496944C16.4688 0.493068 16.6035 0.518261 16.4494 0.889367C14.6073 5.32178 12.7751 9.75826 10.9526 14.1988C10.8557 14.4342 10.7326 14.5069 10.4894 14.505C9.45916 14.4937 8.42879 14.4934 7.39851 14.504C7.15433 14.5069 7.03031 14.4478 6.96248 14.1842C5.97513 10.3453 4.97615 6.50924 3.98104 2.67222C3.96554 2.61021 3.96651 2.54432 3.96069 2.4794ZM17.5308 14.4992C17.0473 14.4992 16.5647 14.4895 16.0822 14.504C15.8322 14.5108 15.7411 14.4497 15.7867 14.1746C16.3777 10.5798 16.96 6.98306 17.5453 3.3873C17.6829 2.54432 17.8399 1.70328 17.9542 0.856422C17.9939 0.559926 18.1121 0.492099 18.3844 0.495975C19.334 0.50954 20.2835 0.50954 21.2331 0.495975C21.5354 0.492099 21.643 0.529888 21.5829 0.893242C20.9647 4.61399 20.3688 8.33958 19.7671 12.0632C19.6557 12.7473 19.5248 13.4294 19.4425 14.1174C19.4037 14.4371 19.2729 14.5176 18.9774 14.505C18.4968 14.4856 18.0133 14.4992 17.5308 14.4992Z" fill="#1457B0"/>
<path fill-rule="evenodd" clip-rule="evenodd" d="M39.1449 4.49971L39.048 4.48227C38.4686 6.0694 37.893 7.6575 37.3097 9.24269C37.2206 9.48493 37.2913 9.55954 37.5374 9.55566C38.0684 9.54597 38.6004 9.55275 39.1313 9.55275C40.1778 9.55275 40.1826 9.55178 39.9724 8.51307C39.7011 7.17496 39.4201 5.83685 39.1449 4.49971ZM42.8424 14.4973H42.3599C41.1787 14.4973 41.1787 14.4973 40.951 13.3132C40.7756 12.4034 40.7756 12.4034 39.8561 12.4034C38.7612 12.4034 37.6663 12.415 36.5714 12.3966C36.2681 12.3908 36.1082 12.4702 36.0172 12.7735C35.8737 13.2512 35.6771 13.7124 35.5191 14.1853C35.4416 14.4178 35.3176 14.507 35.0656 14.5031C34.0516 14.4833 33.0372 14.4839 32.0232 14.505C31.5193 14.5186 31.7063 14.2764 31.8042 14.0438L35.867 4.3253C36.2274 3.46391 36.6169 2.61317 36.9444 1.73919C37.2681 0.877796 37.8882 0.511535 38.7612 0.501845C39.5984 0.493125 40.4355 0.51638 41.2717 0.491187C41.577 0.481498 41.6535 0.623932 41.7049 0.871013C42.3821 4.15476 43.0643 7.43755 43.7445 10.7203C43.9828 11.8734 44.2076 13.0284 44.4644 14.1766C44.5284 14.4634 44.445 14.5089 44.1941 14.5012C43.7445 14.4876 43.293 14.4973 42.8424 14.4973Z" fill="#1457B0"/>
</svg>
